<svg width="20" height="19" viewBox="0 0 20 19" fill="none" xmlns="http://www.w3.org/2000/svg">
<path d="M12.12 2.71387L13.95 4.71387H18V16.7139H2V4.71387H6.05L7.88 2.71387H12.12ZM13 0.713867H7L5.17 2.71387H2C0.9 2.71387 0 3.61387 0 4.71387V16.7139C0 17.8139 0.9 18.7139 2 18.7139H18C19.1 18.7139 20 17.8139 20 16.7139V4.71387C20 3.61387 19.1 2.71387 18 2.71387H14.83L13 0.713867ZM10 7.71387C11.65 7.71387 13 9.06387 13 10.7139C13 12.3639 11.65 13.7139 10 13.7139C8.35 13.7139 7 12.3639 7 10.7139C7 9.06387 8.35 7.71387 10 7.71387ZM10 5.71387C7.24 5.71387 5 7.95387 5 10.7139C5 13.4739 7.24 15.7139 10 15.7139C12.76 15.7139 15 13.4739 15 10.7139C15 7.95387 12.76 5.71387 10 5.71387Z" fill="#001569"/>
</svg>
