<svg width="20" height="10" viewBox="0 0 20 10" fill="none" xmlns="http://www.w3.org/2000/svg">
<path d="M19.7708 7.83295L17.4387 4.97508L19.725 2.17436C19.8501 2.02115 19.9289 1.83546 19.9522 1.63907C19.9755 1.44268 19.9423 1.24371 19.8565 1.06551C19.7696 0.865764 19.6256 0.696211 19.4425 0.578218C19.2594 0.460226 19.0455 0.399078 18.8277 0.402481H1.10886C0.965485 0.400211 0.823073 0.426207 0.689751 0.478984C0.556429 0.53176 0.43481 0.610284 0.33184 0.71007C0.22887 0.809855 0.146565 0.928948 0.0896276 1.06055C0.0326899 1.19214 0.0022342 1.33367 0 1.47704L0 8.47883C0.00600767 8.76738 0.126033 9.04182 0.333828 9.24211C0.541623 9.44241 0.820278 9.55227 1.10886 9.54768H18.8905C19.1011 9.5512 19.3082 9.4944 19.4874 9.38401C19.6667 9.27361 19.8106 9.11422 19.9022 8.92466C19.9845 8.74858 20.0158 8.55297 19.9925 8.36002C19.9693 8.16706 19.8925 7.98448 19.7708 7.83295ZM1.14315 8.40453V1.54563H18.7362L15.9698 4.93507L18.7762 8.40453H1.14315Z" fill="#001569"/>
<path d="M5.36664 5.74612L3.5033 3.25977H2.85742V6.7921H3.5033V4.31146L5.36664 6.7921H6.0068V3.25977H5.36664V5.74612Z" fill="#001569"/>
<path d="M6.96191 6.7921H9.62545V6.20909H7.60779V5.28886H9.43112V4.70013H7.60779V3.84849H9.62545V3.25977H6.96191V6.7921Z" fill="#001569"/>
<path d="M14.0151 5.79184L13.1806 3.25977H12.4833L11.6431 5.79184L10.8886 3.25977H10.1855L11.3058 6.7921H11.9403L12.8319 4.16857L13.7179 6.7921H14.3638L15.4783 3.25977H14.7753L14.0151 5.79184Z" fill="#001569"/>
</svg>
