<svg width="62" height="62" viewBox="0 0 62 62" fill="none" xmlns="http://www.w3.org/2000/svg">
<path d="M30.6064 60.9949C-0.098942 53.7715 1.00497 7.09548 1.00497 7.09548C6.70448 7.15548 31.0024 1 31.0024 1V1.10799C31.0024 1.10799 55.3003 7.25147 60.9999 7.20347C60.9999 7.20347 61.2998 53.7715 30.6064 60.9949Z" fill="#FFAF37"/>
<path d="M43.6681 4.12793C43.6681 4.12793 51.4002 40.6204 31.002 59.8188C31.002 59.8188 50.2003 58.6189 57.3997 29.8213C64.5991 1.02379 57.3997 7.02328 57.3997 7.02328L43.6681 4.12793Z" fill="#FFAF37"/>
<path d="M19.7764 27.218L30.7734 44.0286L48.4167 14.9131L42.2937 17.9032L30.8106 36.8508L23.6544 25.9101L19.7764 27.218Z" fill="#001569"/>
<path d="M31.0024 1C31.0024 1 6.69964 7.15308 1.00492 7.10148C1.00492 7.10148 -0.0953833 53.7691 30.6028 60.9937" stroke="#FFAF37" stroke-width="0.5" stroke-miterlimit="10" stroke-linecap="round" stroke-linejoin="round"/>
<path d="M30.6025 60.9945C61.2995 53.7675 60.9995 7.20304 60.9995 7.20304C55.3048 7.25584 31.0021 1.10156 31.0021 1.10156" stroke="#FFAF37" stroke-width="0.5" stroke-miterlimit="10" stroke-linecap="round" stroke-linejoin="round"/>
<path d="M19.7764 27.218L30.7734 44.0286L48.4167 14.9131L42.2937 17.9032L30.8106 36.8508L23.6544 25.9101L19.7764 27.218Z" stroke="#FFAF37" stroke-width="0.5" stroke-miterlimit="10" stroke-linecap="round" stroke-linejoin="round"/>
</svg>
