<svg width="15" height="24" viewBox="0 0 15 24" fill="none" xmlns="http://www.w3.org/2000/svg">
<path d="M12 1.50781C12.3978 1.50781 12.7794 1.66585 13.0607 1.94715C13.342 2.22846 13.5 2.60999 13.5 3.00781V21.0078C13.5 21.4056 13.342 21.7872 13.0607 22.0685C12.7794 22.3498 12.3978 22.5078 12 22.5078H3C2.60218 22.5078 2.22064 22.3498 1.93934 22.0685C1.65804 21.7872 1.5 21.4056 1.5 21.0078V3.00781C1.5 2.60999 1.65804 2.22846 1.93934 1.94715C2.22064 1.66585 2.60218 1.50781 3 1.50781H12ZM3 0.0078125C2.20435 0.0078125 1.44129 0.323883 0.87868 0.886492C0.31607 1.4491 0 2.21216 0 3.00781V21.0078C0 21.8035 0.31607 22.5665 0.87868 23.1291C1.44129 23.6917 2.20435 24.0078 3 24.0078H12C12.7956 24.0078 13.5587 23.6917 14.1213 23.1291C14.6839 22.5665 15 21.8035 15 21.0078V3.00781C15 2.21216 14.6839 1.4491 14.1213 0.886492C13.5587 0.323883 12.7956 0.0078125 12 0.0078125L3 0.0078125Z" fill="#001569"/>
<path d="M7.5 21.0078C7.89782 21.0078 8.27936 20.8498 8.56066 20.5685C8.84196 20.2872 9 19.9056 9 19.5078C9 19.11 8.84196 18.7285 8.56066 18.4472C8.27936 18.1658 7.89782 18.0078 7.5 18.0078C7.10218 18.0078 6.72064 18.1658 6.43934 18.4472C6.15804 18.7285 6 19.11 6 19.5078C6 19.9056 6.15804 20.2872 6.43934 20.5685C6.72064 20.8498 7.10218 21.0078 7.5 21.0078Z" fill="#001569"/>
</svg>
