<svg width="24" height="24" viewBox="0 0 24 24" fill="none" xmlns="http://www.w3.org/2000/svg">
<path d="M5.41751 22.125L5.86887 22.35C7.7498 23.475 9.85625 24 11.9628 24C18.5833 24 24 18.6 24 12C24 8.85004 22.721 5.77502 20.4641 3.52498C18.2071 1.27495 15.1977 0 11.9628 0C5.34234 0 -0.0745051 5.39999 0.000775285 12.075C0.000775285 14.325 0.677867 16.5001 1.80632 18.375L2.10722 18.825L0.9036 23.2501L5.41751 22.125Z" fill="#00E676"/>
<path d="M19.2764 4.61125C17.3586 2.63714 14.7076 1.56543 12.0002 1.56543C6.24705 1.56543 1.62187 6.24696 1.67823 11.9438C1.67823 13.7487 2.18587 15.4973 3.03198 17.0766L1.56543 22.435L7.03664 21.0249C8.55955 21.871 10.2516 22.2658 11.9439 22.2658C17.6407 22.2658 22.2658 17.5842 22.2658 11.8875C22.2658 9.12363 21.1941 6.529 19.2765 4.61125H19.2764ZM12.0002 20.5173C10.4773 20.5173 8.95439 20.1226 7.65708 19.3329L7.31868 19.1637L4.04726 20.0097L4.89329 16.7947L4.66769 16.4562C2.18587 12.4516 3.37038 7.14944 7.43148 4.66761C11.4926 2.18587 16.7382 3.37038 19.22 7.43148C21.7018 11.4926 20.5172 16.7382 16.4562 19.22C15.1588 20.066 13.5796 20.5172 12.0002 20.5172V20.5173ZM16.9638 14.2565L16.3433 13.9745C16.3433 13.9745 15.441 13.5796 14.8769 13.2976C14.8204 13.2976 14.7641 13.2412 14.7076 13.2412C14.5384 13.2412 14.4256 13.2976 14.3128 13.354C14.3128 13.354 14.2564 13.4104 13.4668 14.3129C13.4103 14.4257 13.2975 14.4821 13.1847 14.4821H13.1283C13.0719 14.4821 12.9591 14.4257 12.9027 14.3693L12.6206 14.2565C12.0002 13.9745 11.4362 13.636 10.9849 13.1848C10.8721 13.072 10.7029 12.9592 10.5901 12.8464C10.1953 12.4516 9.80042 12.0003 9.51847 11.4927L9.46203 11.3799C9.40567 11.3234 9.40567 11.2671 9.34923 11.1543C9.34923 11.0415 9.34923 10.9287 9.40567 10.8722C9.40567 10.8722 9.63127 10.5902 9.80042 10.421C9.91331 10.3081 9.96966 10.139 10.0825 10.0262C10.1953 9.85694 10.2517 9.63135 10.1953 9.46211C10.1389 9.18007 9.46203 7.65716 9.29287 7.31876C9.17999 7.14952 9.06727 7.09316 8.89803 7.03672H8.27759C8.16471 7.03672 8.052 7.09316 7.93912 7.09316L7.88268 7.14952C7.76988 7.20596 7.65708 7.31876 7.54428 7.37512C7.43148 7.488 7.37504 7.60072 7.26224 7.7136C6.8674 8.22123 6.6418 8.84167 6.6418 9.46211C6.6418 9.9133 6.7546 10.3646 6.92384 10.7594L6.98028 10.9287C7.48792 12.0003 8.16471 12.9592 9.06727 13.8052L9.29287 14.0308C9.46203 14.2001 9.63127 14.3129 9.74407 14.482C10.9286 15.4974 12.2823 16.2306 13.8052 16.6255C13.9744 16.6818 14.2 16.6818 14.3692 16.7383H14.9332C15.2153 16.7383 15.5537 16.6255 15.7794 16.5127C15.9485 16.3999 16.0613 16.3999 16.1741 16.2871L16.287 16.1742C16.3998 16.0614 16.5126 16.005 16.6254 15.8922C16.7382 15.7794 16.851 15.6666 16.9074 15.5538C17.0202 15.3282 17.0766 15.0461 17.133 14.7642V14.3693C17.133 14.3693 17.0766 14.3129 16.9638 14.2565Z" fill="white"/>
</svg>
