<svg width="20" height="21" viewBox="0 0 20 21" fill="none" xmlns="http://www.w3.org/2000/svg">
<path d="M7 17.2705H2C1.46957 17.2705 0.960859 17.0598 0.585786 16.6847C0.210714 16.3096 0 15.8009 0 15.2705V2.27051C0 1.17051 0.9 0.270508 2 0.270508H18C18.5304 0.270508 19.0391 0.481222 19.4142 0.856294C19.7893 1.23137 20 1.74007 20 2.27051V15.2705C20 15.8009 19.7893 16.3096 19.4142 16.6847C19.0391 17.0598 18.5304 17.2705 18 17.2705H13L17 19.2705V20.2705H3V19.2705L7 17.2705ZM2 2.27051V13.2705H18V2.27051H2Z" fill="#001569"/>
</svg>
