<svg width="20" height="23" viewBox="0 0 20 23" fill="none" xmlns="http://www.w3.org/2000/svg">
<path d="M8.125 10.4971H10V12.3106H8.125V10.4971Z" fill="#001569"/>
<path d="M15.2812 7.9309C14.1728 5.29924 12.6606 3.07429 10.8625 1.42929C10.0318 0.665453 9.08488 0.208256 8.10437 0.0976115C7.12387 -0.0130326 6.1396 0.226241 5.2375 0.794541C4.44844 1.33453 3.76184 2.14507 3.23699 3.15617C2.71213 4.16726 2.36481 5.34852 2.225 6.59793C2.175 7.02412 2.1375 7.43217 2.1 7.83115C1.51484 7.96876 0.982423 8.40357 0.597769 9.05797C0.213115 9.71238 0.00125517 10.5438 0 11.4039V16.9624C0 17.4434 0.131696 17.9047 0.366116 18.2448C0.600537 18.5849 0.918479 18.776 1.25 18.776V11.4039C1.25 10.9229 1.3817 10.4616 1.61612 10.1215C1.85054 9.78137 2.16848 9.5903 2.5 9.5903H14.2062C15.4108 9.5927 16.5656 10.288 17.4173 11.5238C18.2691 12.7596 18.7483 14.4349 18.75 16.1826V16.8445H17.5C17.236 15.9107 16.7443 15.1505 16.1187 14.709C15.493 14.2676 14.7773 14.1758 14.108 14.4512C13.4387 14.7266 12.8627 15.3499 12.4899 16.2022C12.1172 17.0544 11.9737 18.0759 12.087 19.0718C12.2002 20.0677 12.5623 20.9682 13.104 21.6016C13.6457 22.2349 14.3291 22.5567 15.024 22.5055C15.7188 22.4544 16.3763 22.0339 16.871 21.3242C17.3657 20.6146 17.6631 19.6655 17.7062 18.6581H18.75C19.0815 18.6581 19.3995 18.467 19.6339 18.1269C19.8683 17.7868 20 17.3255 20 16.8445V16.1826C19.9975 14.2257 19.525 12.3313 18.6637 10.8252C17.8025 9.31917 16.6064 8.2957 15.2812 7.9309ZM5.625 7.77674H3.08125C3.08125 7.49564 3.1375 7.20547 3.175 6.86996C3.28298 5.87383 3.56478 4.93432 3.9936 4.14075C4.42243 3.34719 4.98402 2.72594 5.625 2.33607V7.77674ZM6.875 7.77674V1.95522C8.04185 1.73538 9.22522 2.10695 10.225 3.00708C11.5898 4.24046 12.7678 5.86315 13.6875 7.77674H6.875ZM14.875 20.8162C14.566 20.8162 14.2639 20.6833 14.0069 20.4342C13.75 20.1851 13.5497 19.831 13.4314 19.4168C13.3132 19.0026 13.2822 18.5468 13.3425 18.107C13.4028 17.6673 13.5516 17.2633 13.7701 16.9463C13.9887 16.6293 14.2671 16.4134 14.5702 16.3259C14.8733 16.2384 15.1874 16.2833 15.4729 16.4549C15.7585 16.6265 16.0025 16.917 16.1742 17.2898C16.3459 17.6626 16.4375 18.1009 16.4375 18.5493C16.4375 19.1505 16.2729 19.7271 15.9799 20.1523C15.6868 20.5774 15.2894 20.8162 14.875 20.8162Z" fill="#001569"/>
<path d="M7.60607 16.8441C7.34211 15.9102 6.85039 15.15 6.22475 14.7086C5.59911 14.2672 4.88334 14.1754 4.21404 14.4508C3.54473 14.7262 2.96875 15.3495 2.59599 16.2017C2.22323 17.0539 2.07979 18.0755 2.19305 19.0714C2.30631 20.0673 2.66834 20.9678 3.21004 21.6011C3.75175 22.2344 4.43522 22.5562 5.13003 22.5051C5.82483 22.4539 6.48233 22.0334 6.97707 21.3238C7.4718 20.6141 7.76913 19.665 7.81232 18.6576H11.1248V18.4309C11.1125 17.8959 11.1546 17.3612 11.2498 16.8441H7.60607ZM4.99982 20.8158C4.69079 20.8158 4.38869 20.6828 4.13174 20.4337C3.87479 20.1846 3.67452 19.8306 3.55626 19.4163C3.438 19.0021 3.40705 18.5463 3.46734 18.1066C3.52763 17.6668 3.67645 17.2629 3.89497 16.9458C4.11349 16.6288 4.3919 16.4129 4.69499 16.3254C4.99809 16.238 5.31225 16.2829 5.59776 16.4544C5.88327 16.626 6.1273 16.9166 6.29899 17.2894C6.47068 17.6622 6.56232 18.1005 6.56232 18.5488C6.56232 19.1501 6.3977 19.7267 6.10467 20.1518C5.81165 20.5769 5.41422 20.8158 4.99982 20.8158Z" fill="#001569"/>
</svg>
