<?xml version="1.0" standalone="no"?>
<!DOCTYPE svg PUBLIC "-//W3C//DTD SVG 20010904//EN"
 "http://www.w3.org/TR/2001/REC-SVG-20010904/DTD/svg10.dtd">
<svg version="1.0" xmlns="http://www.w3.org/2000/svg"
 width="920.000000pt" height="512.000000pt" viewBox="0 0 920.000000 512.000000"
 preserveAspectRatio="xMidYMid meet">
<metadata>
Created by potrace 1.16, written by Peter Selinger 2001-2019
</metadata>
<g transform="translate(0.000000,512.000000) scale(0.100000,-0.100000)"
fill="#000000" stroke="none">
<path d="M2421 4524 c-245 -66 -410 -312 -374 -559 28 -197 182 -371 370 -420
86 -23 4280 -23 4366 0 188 49 342 223 370 420 36 250 -130 495 -378 560 -52
13 -306 15 -2180 14 -1818 0 -2128 -2 -2174 -15z"/>
<path d="M2460 3059 c-93 -16 -194 -70 -269 -146 -118 -121 -168 -269 -143
-429 33 -212 211 -390 422 -424 88 -14 4157 -14 4255 0 213 31 394 210 427
424 40 261 -138 516 -401 572 -55 11 -397 13 -2151 13 -1186 -1 -2109 -5
-2140 -10z"/>
<path d="M2413 1575 c-183 -50 -336 -223 -366 -415 -39 -253 132 -505 384
-565 56 -13 326 -15 2165 -15 1357 0 2120 4 2155 10 143 26 288 138 354 273
118 241 28 532 -207 664 -119 68 46 63 -2304 62 -1795 0 -2137 -3 -2181 -14z"/>
</g>
</svg>
