<svg width="20" height="24" viewBox="0 0 20 24" fill="none" xmlns="http://www.w3.org/2000/svg">
<path d="M10 0.208008L0 3.54134V13.5413C0 19.0648 4.47656 23.5413 10 23.5413C15.5234 23.5413 20 19.0648 20 13.5413V3.54134L10 0.208008ZM18.125 13.5413C18.125 18.0283 14.487 21.6663 10 21.6663C5.51302 21.6663 1.875 18.0283 1.875 13.5413V4.94759L10 2.08301L18.125 4.94759V13.5413Z" fill="#001569"/>
<path d="M6.52085 10.9134C6.43396 10.8261 6.33068 10.7569 6.21694 10.7096C6.10321 10.6623 5.98126 10.638 5.85809 10.638C5.73493 10.638 5.61297 10.6623 5.49924 10.7096C5.3855 10.7569 5.28222 10.8261 5.19533 10.9134C5.10804 11.0003 5.03878 11.1036 4.99151 11.2173C4.94425 11.3311 4.91992 11.453 4.91992 11.5762C4.91992 11.6993 4.94425 11.8213 4.99151 11.935C5.03878 12.0488 5.10804 12.152 5.19533 12.2389L8.56512 15.6087L8.61981 15.6634C8.702 15.7458 8.79963 15.8111 8.90709 15.8557C9.01456 15.9002 9.12977 15.9232 9.24611 15.9232C9.36246 15.9232 9.47766 15.9002 9.58513 15.8557C9.6926 15.8111 9.79022 15.7458 9.87241 15.6634L15.6927 9.8431C15.7751 9.76091 15.8404 9.66328 15.885 9.55582C15.9296 9.44835 15.9525 9.33314 15.9525 9.2168C15.9525 9.10045 15.9296 8.98525 15.885 8.87778C15.8404 8.77031 15.7751 8.67269 15.6927 8.5905L15.6198 8.51758C15.5376 8.43523 15.44 8.3699 15.3325 8.32533C15.2251 8.28076 15.1099 8.25781 14.9935 8.25781C14.8772 8.25781 14.762 8.28076 14.6545 8.32533C14.547 8.3699 14.4494 8.43523 14.3672 8.51758L9.24481 13.6374L6.52085 10.9134Z" fill="#001569"/>
</svg>
