<svg width="20" height="18" viewBox="0 0 20 18" fill="none" xmlns="http://www.w3.org/2000/svg">
<path d="M19.0909 15.4019V17.2201H17.2727V15.4019H2.72727V17.2201H0.909091V15.4019C0.667985 15.4019 0.436754 15.3061 0.266267 15.1356C0.0957789 14.9651 0 14.7339 0 14.4928V3.58372C0 3.34262 0.0957789 3.11138 0.266267 2.9409C0.436754 2.77041 0.667985 2.67463 0.909091 2.67463H10.48C10.9911 2.10196 11.6175 1.64389 12.3182 1.33053C13.0189 1.01717 13.7779 0.855605 14.5455 0.856449C16.1609 0.856449 17.6127 1.55918 18.6109 2.67463H19.0909C19.332 2.67463 19.5632 2.77041 19.7337 2.9409C19.9042 3.11138 20 3.34262 20 3.58372V14.4928C20 14.7339 19.9042 14.9651 19.7337 15.1356C19.5632 15.3061 19.332 15.4019 19.0909 15.4019ZM9.40091 4.49281H1.81818V13.5837H18.1818V10.3764C17.2792 11.1849 16.1331 11.6697 14.9244 11.7545C13.7156 11.8393 12.5131 11.5192 11.5064 10.8447C10.4998 10.1702 9.74641 9.17977 9.36515 8.02959C8.9839 6.87942 8.99648 5.63504 9.40091 4.49281ZM14.5455 9.94736C15.5099 9.94736 16.4348 9.56424 17.1168 8.88229C17.7987 8.20034 18.1818 7.27542 18.1818 6.31099C18.1818 5.34657 17.7987 4.42165 17.1168 3.7397C16.4348 3.05775 15.5099 2.67463 14.5455 2.67463C13.581 2.67463 12.6561 3.05775 11.9742 3.7397C11.2922 4.42165 10.9091 5.34657 10.9091 6.31099C10.9091 7.27542 11.2922 8.20034 11.9742 8.88229C12.6561 9.56424 13.581 9.94736 14.5455 9.94736ZM3.63636 9.94736H5.45455V11.7655H3.63636V9.94736ZM6.36364 9.94736H8.18182V11.7655H6.36364V9.94736Z" fill="#001569"/>
</svg>
