<svg width="20" height="21" viewBox="0 0 20 21" fill="none" xmlns="http://www.w3.org/2000/svg">
<path d="M16.3035 19.4639H3.44947C3.26007 19.4639 3.07843 19.5297 2.94451 19.6469C2.81059 19.7641 2.73535 19.9231 2.73535 20.0889C2.73535 20.2546 2.81059 20.4136 2.94451 20.5308C3.07843 20.648 3.26007 20.7139 3.44947 20.7139H16.3035C16.4929 20.7139 16.6746 20.648 16.8085 20.5308C16.9424 20.4136 17.0177 20.2546 17.0177 20.0889C17.0177 19.9231 16.9424 19.7641 16.8085 19.6469C16.6746 19.5297 16.4929 19.4639 16.3035 19.4639Z" fill="#001569"/>
<path d="M9.99761 0.713868C7.34608 0.713868 4.80315 1.63574 2.92823 3.27668C1.05332 4.91763 0 7.14322 0 9.46387C0 9.74512 -4.78852e-08 10.0201 0.049988 10.2951C0.234009 11.9828 0.974243 13.5873 2.18071 14.9137C3.38717 16.24 5.0079 17.231 6.84587 17.7663C8.68385 18.3016 10.6599 18.358 12.5338 17.9287C14.4078 17.4995 16.0989 16.603 17.4015 15.3483C18.7042 14.0936 19.5624 12.5347 19.8717 10.8611C20.181 9.18754 19.9282 7.47137 19.1439 5.92121C18.3596 4.37104 17.0777 3.05367 15.454 2.12922C13.8303 1.20477 11.9347 0.713059 9.99761 0.713868ZM9.99761 1.96387C12.2556 1.96558 14.4216 2.74721 16.0247 4.13887V4.76387C13.2023 3.91375 10.1341 3.92477 7.31968 4.79512C7.09484 4.60336 6.81261 4.47119 6.50559 4.41387H6.32706C6.24137 4.15137 6.16281 3.88887 6.09854 3.62012C6.03427 3.35137 5.99857 3.11387 5.96286 2.85762C7.20256 2.2721 8.58892 1.965 9.99761 1.96387ZM7.85527 5.63262C10.4487 4.87253 13.2594 4.90116 15.8319 5.71387C15.484 7.30175 14.7242 8.79852 13.611 10.0889C13.2997 9.97347 12.955 9.94576 12.6249 10.0096C12.2947 10.0734 11.9954 10.2257 11.7686 10.4451C11.5187 10.3201 11.2687 10.1951 11.0545 10.0514C9.61292 9.20956 8.40902 8.09177 7.53392 6.78262C7.67535 6.62913 7.77833 6.45132 7.83615 6.26073C7.89397 6.07015 7.90535 5.87105 7.86955 5.67637L7.85527 5.63262ZM4.99881 3.38262C4.99881 3.51387 5.04165 3.65137 5.07022 3.78262C5.13449 4.05762 5.22018 4.32637 5.30588 4.59512C5.03242 4.73684 4.81233 4.94551 4.67274 5.19539C4.53316 5.44528 4.48018 5.72545 4.52035 6.00137C3.39312 6.64561 2.38626 7.43828 1.53535 8.35137C1.70609 7.36247 2.10109 6.41344 2.69712 5.56014C3.29314 4.70683 4.07815 3.96647 5.00595 3.38262H4.99881ZM4.99881 13.2014C4.72004 13.2833 4.47089 13.4281 4.27655 13.6212C4.0822 13.8144 3.94953 14.049 3.89193 14.3014H3.43489C2.28165 13.0975 1.59191 11.6059 1.46394 10.0389L1.54249 9.92012C2.43672 8.70658 3.60576 7.66641 4.97738 6.86387C5.18303 7.05184 5.44291 7.18767 5.72952 7.25698C6.01613 7.32629 6.31882 7.32651 6.60557 7.25762C7.56074 8.67033 8.8664 9.87714 10.4261 10.7889C10.7189 10.9576 11.0188 11.1139 11.3187 11.2639C11.2947 11.5029 11.3389 11.7434 11.4473 11.9639C10.1404 12.8721 8.63298 13.5339 7.01975 13.9076C6.83267 13.6017 6.52741 13.364 6.15851 13.2369C5.7896 13.1098 5.38109 13.1016 5.00595 13.2139L4.99881 13.2014ZM9.99761 16.9514C8.54527 16.9517 7.11697 16.6268 5.8486 16.0076L6.04856 15.9701C6.33272 15.8885 6.58666 15.7417 6.78387 15.5449C6.98108 15.3481 7.11433 15.1086 7.16972 14.8514C8.9957 14.4438 10.7004 13.6978 12.1685 12.6639C12.5173 12.8422 12.9291 12.9013 13.3246 12.8298C13.7202 12.7583 14.0715 12.5611 14.3109 12.2764C15.3184 12.5056 16.3548 12.6232 17.3958 12.6264H17.7743C17.0854 13.923 15.9873 15.0202 14.6094 15.7887C13.2316 16.5572 11.6315 16.9649 9.99761 16.9639V16.9514ZM14.6465 11.3889C14.6458 11.1269 14.5644 10.87 14.4108 10.6451C15.5993 9.28645 16.4263 7.71279 16.8317 6.03887C17.1888 6.1847 17.541 6.3472 17.8886 6.52637C18.674 8.15069 18.7802 9.96531 18.1885 11.6514C17.0029 11.7316 15.8103 11.6494 14.6536 11.4076L14.6465 11.3889Z" fill="#001569"/>
</svg>
