<svg width="20" height="21" viewBox="0 0 20 21" fill="none" xmlns="http://www.w3.org/2000/svg">
<path d="M16.8333 5.32806V0.657227H3.16667V5.32806C2.31289 5.37182 1.50845 5.74154 0.919248 6.36097C0.330048 6.98041 0.00101396 7.80233 0 8.65723V16.6572H2.83333V15.3239H1.33333V8.65723C1.33393 8.12698 1.54483 7.61861 1.91978 7.24367C2.29472 6.86873 2.80308 6.65782 3.33333 6.65723H16.6667C17.1969 6.65782 17.7053 6.86873 18.0802 7.24367C18.4552 7.61861 18.6661 8.12698 18.6667 8.65723V15.3239H16.8333V16.6572H20V8.65723C19.999 7.80233 19.67 6.98041 19.0808 6.36097C18.4916 5.74154 17.6871 5.37182 16.8333 5.32806ZM15.5 5.32389H4.5V1.99056H15.5V5.32389Z" fill="#001569"/>
<path d="M15.833 8.32422H17.1663V9.65755H15.833V8.32422Z" fill="#001569"/>
<path d="M4.16667 10.9902H2.5V12.3236H4.16667V20.6569H15.5V12.3236H17.1667V10.9902H4.16667ZM14.1667 19.3236H5.5V12.3236H14.1667V19.3236Z" fill="#001569"/>
</svg>
