<svg width="34" height="35" viewBox="0 0 34 35" fill="none" xmlns="http://www.w3.org/2000/svg">
<path d="M14.8313 8.61831L9.75681 2.76084C9.17181 2.08585 8.09932 2.08885 7.41982 2.76984L3.24684 6.95032C2.00485 8.19381 1.64935 10.0403 2.36785 11.5208C6.66025 20.4082 13.8279 27.5858 22.7092 31.8907C24.1882 32.6092 26.0332 32.2537 27.2752 31.0102L31.4872 26.7907C32.1697 26.1082 32.1712 25.0297 31.4902 24.4447L25.6102 19.3973C24.9952 18.8693 24.0397 18.9383 23.4232 19.5562L21.3772 21.6052C21.2725 21.715 21.1346 21.7874 20.9848 21.8112C20.8349 21.8351 20.6814 21.8091 20.5477 21.7372C17.2034 19.8114 14.4293 17.0336 12.5078 13.6868C12.4358 13.5529 12.4098 13.3991 12.4336 13.249C12.4575 13.0989 12.5299 12.9608 12.6398 12.8558L14.6798 10.8143C15.2978 10.1933 15.3653 9.23331 14.8313 8.61681V8.61831Z" stroke="#FFAF37" stroke-width="4" stroke-linecap="round" stroke-linejoin="round"/>
</svg>
