<?xml version="1.0" encoding="UTF-8"?>
<!DOCTYPE svg PUBLIC "-//W3C//DTD SVG 1.1//EN" "http://www.w3.org/Graphics/SVG/1.1/DTD/svg11.dtd">
<svg xmlns="http://www.w3.org/2000/svg" version="1.1" width="474px" height="474px" style="shape-rendering:geometricPrecision; text-rendering:geometricPrecision; image-rendering:optimizeQuality; fill-rule:evenodd; clip-rule:evenodd" xmlns:xlink="http://www.w3.org/1999/xlink">
<g><path style="opacity:1" fill="#fcfdfc" d="M -0.5,-0.5 C 157.5,-0.5 315.5,-0.5 473.5,-0.5C 473.5,157.5 473.5,315.5 473.5,473.5C 315.5,473.5 157.5,473.5 -0.5,473.5C -0.5,315.5 -0.5,157.5 -0.5,-0.5 Z"/></g>
<g><path style="opacity:1" fill="#95a3d6" d="M 249.5,3.5 C 233.258,3.06974 217.258,4.06974 201.5,6.5C 199.833,6.5 198.167,6.5 196.5,6.5C 204.874,4.24988 213.541,3.08322 222.5,3C 231.676,2.17602 240.676,2.34269 249.5,3.5 Z"/></g>
<g><path style="opacity:1" fill="#3e52a8" d="M 249.5,3.5 C 254.434,3.22914 259.1,3.89581 263.5,5.5C 259.407,5.52217 255.407,6.18884 251.5,7.5C 237.582,4.56798 223.749,4.90131 210,8.5C 207.321,7.10549 204.488,6.43883 201.5,6.5C 217.258,4.06974 233.258,3.06974 249.5,3.5 Z"/></g>
<g><path style="opacity:1" fill="#3f50b3" d="M 263.5,5.5 C 274.298,6.02169 284.964,7.52169 295.5,10C 301.329,12.4563 307.329,14.2897 313.5,15.5C 318.52,17.6808 323.52,20.0141 328.5,22.5C 326.801,22.3398 325.134,22.5065 323.5,23C 322.692,24.7058 321.359,25.5391 319.5,25.5C 319.5,26.8333 319.5,28.1667 319.5,29.5C 316.187,28.9552 312.854,28.4552 309.5,28C 308.5,26.3333 307.5,24.6667 306.5,23C 305.552,22.5172 304.552,22.3505 303.5,22.5C 303.5,19.8333 303.5,17.1667 303.5,14.5C 297.017,14.238 290.85,12.9047 285,10.5C 282.949,10.4229 281.116,10.9229 279.5,12C 290.025,14.4726 289.692,15.4726 278.5,15C 278.833,14.6667 279.167,14.3333 279.5,14C 275.5,13.8333 271.5,13.6667 267.5,13.5C 245.706,16.088 224.706,16.088 204.5,13.5C 198.929,13.5809 193.429,14.2476 188,15.5C 183.916,14.3053 179.75,13.6386 175.5,13.5C 180.832,11.2813 186.165,9.2813 191.5,7.5C 192.919,6.54885 194.585,6.21552 196.5,6.5C 198.167,6.5 199.833,6.5 201.5,6.5C 204.488,6.43883 207.321,7.10549 210,8.5C 223.749,4.90131 237.582,4.56798 251.5,7.5C 255.407,6.18884 259.407,5.52217 263.5,5.5 Z"/></g>
<g><path style="opacity:1" fill="#5862a0" d="M 191.5,7.5 C 186.165,9.2813 180.832,11.2813 175.5,13.5C 170.889,14.4851 166.222,15.1518 161.5,15.5C 170.911,11.0363 180.911,8.36962 191.5,7.5 Z"/></g>
<g><path style="opacity:1" fill="#404fb7" d="M 328.5,22.5 C 328.833,22.5 329.167,22.5 329.5,22.5C 329.5,23.8333 329.5,25.1667 329.5,26.5C 327.712,26.2148 326.045,26.5481 324.5,27.5C 326.023,29.2825 328.023,29.9492 330.5,29.5C 330.5,28.5 330.5,27.5 330.5,26.5C 332.167,26.5 333.833,26.5 335.5,26.5C 335.5,27.5 335.5,28.5 335.5,29.5C 338.673,29.4012 341.673,30.0678 344.5,31.5C 346.167,31.8333 347.167,32.8333 347.5,34.5C 349.5,35.1667 351.5,35.8333 353.5,36.5C 351.995,37.8415 351.328,39.5082 351.5,41.5C 352.5,41.5 353.5,41.5 354.5,41.5C 354.5,40.5 354.5,39.5 354.5,38.5C 356.167,38.5 357.833,38.5 359.5,38.5C 362.511,39.6693 365.178,41.336 367.5,43.5C 369.463,46.6306 371.963,49.2973 375,51.5C 375.49,52.7932 375.657,54.1266 375.5,55.5C 372.833,55.5 370.167,55.5 367.5,55.5C 367.5,57.1667 367.5,58.8333 367.5,60.5C 372.039,60.6782 376.539,60.3449 381,59.5C 382.627,59.6251 384.127,60.1251 385.5,61C 385.191,65.0699 385.524,69.2366 386.5,73.5C 388.433,73.7286 390.1,74.5619 391.5,76C 394.146,76.4974 396.813,76.6641 399.5,76.5C 399.819,80.2998 400.819,80.4665 402.5,77C 403.784,76.3162 404.951,76.4829 406,77.5C 407.439,79.2746 408.439,81.2746 409,83.5C 413.423,86.9549 417.256,90.9549 420.5,95.5C 421.452,97.0453 421.785,98.712 421.5,100.5C 420.5,100.5 419.5,100.5 418.5,100.5C 418.5,98.8333 418.5,97.1667 418.5,95.5C 417.5,95.5 416.5,95.5 415.5,95.5C 415.997,100.196 417.33,104.696 419.5,109C 423.07,112.146 426.737,112.313 430.5,109.5C 431.265,110.612 432.265,111.279 433.5,111.5C 435.664,113.822 437.331,116.489 438.5,119.5C 440.496,124.705 442.329,130.038 444,135.5C 445.298,136.56 446.465,137.726 447.5,139C 449.917,146.312 452.917,153.145 456.5,159.5C 456.665,162.518 456.498,165.518 456,168.5C 453.897,170.303 453.064,172.636 453.5,175.5C 454.5,175.5 455.5,175.5 456.5,175.5C 455.499,181.164 457.833,183.498 463.5,182.5C 463.334,188.509 463.501,194.509 464,200.5C 466.429,213.375 467.929,226.375 468.5,239.5C 467.192,255.552 465.526,271.552 463.5,287.5C 463.258,294.284 461.592,300.618 458.5,306.5C 457.167,306.5 455.833,306.5 454.5,306.5C 454.666,302.486 454.499,298.486 454,294.5C 451.684,292.53 449.851,290.196 448.5,287.5C 448.167,288.833 447.833,290.167 447.5,291.5C 448.989,294.668 449.989,298.001 450.5,301.5C 448.953,306.012 447.953,310.678 447.5,315.5C 447.667,317.833 447.833,320.167 448,322.5C 449.487,321.259 450.32,321.759 450.5,324C 449.715,327.977 448.715,331.811 447.5,335.5C 446.341,339.151 444.674,342.485 442.5,345.5C 439.512,345.845 438.179,344.512 438.5,341.5C 438.335,338.994 439.335,337.161 441.5,336C 438.854,335.503 436.187,335.336 433.5,335.5C 433.539,340.944 432.873,346.277 431.5,351.5C 425.5,351.5 419.5,351.5 413.5,351.5C 412.575,356.276 412.742,360.943 414,365.5C 414.71,366.973 415.876,367.64 417.5,367.5C 416.688,369.743 416.021,372.076 415.5,374.5C 416.426,377.47 417.092,380.47 417.5,383.5C 416.167,383.5 414.833,383.5 413.5,383.5C 411.125,387.388 408.125,390.888 404.5,394C 402.866,394.494 401.199,394.66 399.5,394.5C 399.5,396.167 399.5,397.833 399.5,399.5C 398.022,399.238 396.689,399.571 395.5,400.5C 396.428,401.768 396.595,403.101 396,404.5C 392.913,407.434 389.746,410.101 386.5,412.5C 384.473,412.338 382.473,412.505 380.5,413C 377.938,415.551 374.938,416.051 371.5,414.5C 373.512,412.894 375.845,411.727 378.5,411C 380.552,407.067 383.885,405.234 388.5,405.5C 387.399,401.944 386.399,398.277 385.5,394.5C 384.914,394.291 384.414,393.957 384,393.5C 381.825,395.694 380.492,398.361 380,401.5C 377.326,404.921 373.826,406.921 369.5,407.5C 364.889,406.398 360.222,405.731 355.5,405.5C 354.432,404.566 353.099,404.232 351.5,404.5C 351.5,403.5 351.5,402.5 351.5,401.5C 353.75,401.181 355.75,401.681 357.5,403C 362.833,403.667 368.167,403.667 373.5,403C 375.324,399.685 377.324,396.519 379.5,393.5C 379.973,392.094 380.973,391.427 382.5,391.5C 386.003,390.145 389.336,388.479 392.5,386.5C 393.167,386.833 393.833,387.167 394.5,387.5C 396.559,386.433 398.392,385.1 400,383.5C 400.672,387.03 402.838,388.363 406.5,387.5C 406.5,386.167 406.5,384.833 406.5,383.5C 405.178,383.67 404.011,383.337 403,382.5C 401.068,376.824 402.902,373.49 408.5,372.5C 408.276,376.179 407.942,379.846 407.5,383.5C 408.833,383.5 410.167,383.5 411.5,383.5C 411.337,381.143 411.503,378.81 412,376.5C 412.654,377.696 413.154,377.696 413.5,376.5C 410.923,370.873 410.256,365.039 411.5,359C 411,355.5 410.5,352 410,348.5C 407.616,346.121 406.116,343.287 405.5,340C 407.473,339.505 409.473,339.338 411.5,339.5C 411.5,338.167 411.5,336.833 411.5,335.5C 406.915,334.987 402.582,335.654 398.5,337.5C 396.49,335.829 394.157,335.162 391.5,335.5C 391.5,335.167 391.5,334.833 391.5,334.5C 391.306,331.67 390.639,329.004 389.5,326.5C 385.628,326.821 382.461,325.488 380,322.5C 379.517,321.552 379.351,320.552 379.5,319.5C 378.5,319.5 377.5,319.5 376.5,319.5C 370.281,315.07 364.947,309.737 360.5,303.5C 359.684,299.853 358.184,296.52 356,293.5C 353.772,291.887 351.272,291.22 348.5,291.5C 347.464,284.928 344.464,279.428 339.5,275C 332.548,275.052 328.715,271.552 328,264.5C 325.981,261.288 323.147,259.622 319.5,259.5C 317.879,259.213 316.879,258.213 316.5,256.5C 315.311,255.571 313.978,255.238 312.5,255.5C 312.325,253.156 311.158,251.489 309,250.5C 308.51,249.207 308.343,247.873 308.5,246.5C 309.552,246.351 310.552,246.517 311.5,247C 314.045,249.376 316.378,251.876 318.5,254.5C 319.948,251.787 319.281,249.787 316.5,248.5C 315.548,246.955 315.215,245.288 315.5,243.5C 311.773,241.411 307.773,240.078 303.5,239.5C 303.5,233.5 303.5,227.5 303.5,221.5C 309.777,222.462 316.111,223.129 322.5,223.5C 325.5,223.167 328.5,222.833 331.5,222.5C 332.32,220.889 333.654,220.222 335.5,220.5C 335.068,212.959 333.401,212.292 330.5,218.5C 328.667,218.833 326.833,219.167 325,219.5C 317.921,217.681 310.754,216.348 303.5,215.5C 303.5,213.833 303.5,212.167 303.5,210.5C 309.45,211.436 315.284,212.769 321,214.5C 323.464,213.839 325.964,213.339 328.5,213C 330.299,211.3 330.632,209.467 329.5,207.5C 331.527,207.662 333.527,207.495 335.5,207C 337.525,205.323 339.859,204.323 342.5,204C 344.426,203.578 345.426,202.411 345.5,200.5C 347.966,199.702 349.966,198.369 351.5,196.5C 351.973,195.094 352.973,194.427 354.5,194.5C 361,191.343 366.666,187.01 371.5,181.5C 372.452,179.955 372.785,178.288 372.5,176.5C 372.5,175.833 372.833,175.5 373.5,175.5C 374.5,175.5 375.5,175.5 376.5,175.5C 377.785,172.526 379.118,169.526 380.5,166.5C 381.458,166.047 382.292,165.381 383,164.5C 383.167,165.667 383.333,166.833 383.5,168C 382.664,170.49 381.998,172.99 381.5,175.5C 387.5,175.5 393.5,175.5 399.5,175.5C 399.666,166.827 399.5,158.16 399,149.5C 397.957,152.757 397.457,156.09 397.5,159.5C 396.167,159.5 394.833,159.5 393.5,159.5C 395.333,146.153 397.167,132.819 399,119.5C 399.5,111.507 399.666,103.507 399.5,95.5C 394.156,95.334 388.823,95.5006 383.5,96C 379.319,99.3263 375.319,99.1596 371.5,95.5C 370.5,95.6667 369.5,95.8333 368.5,96C 370,98.8333 372.167,101 375,102.5C 375.301,105.507 375.135,108.507 374.5,111.5C 373.167,111.5 371.833,111.5 370.5,111.5C 370.5,108.5 370.5,105.5 370.5,102.5C 369.5,102.5 368.5,102.5 367.5,102.5C 368.161,107.295 367.161,111.628 364.5,115.5C 363.38,116.833 362.047,117.333 360.5,117C 362.019,115.649 363.352,114.149 364.5,112.5C 362.833,111.167 361.167,111.167 359.5,112.5C 358.135,113.941 356.635,115.274 355,116.5C 354.51,117.793 354.343,119.127 354.5,120.5C 353.5,120.5 352.5,120.5 351.5,120.5C 351.5,121.5 351.5,122.5 351.5,123.5C 354.439,123.082 356.772,121.582 358.5,119C 359.793,118.51 361.127,118.343 362.5,118.5C 362.5,119.833 362.5,121.167 362.5,122.5C 355.701,129.134 349.034,135.967 342.5,143C 341.906,143.464 341.239,143.631 340.5,143.5C 337.88,144.753 335.213,146.086 332.5,147.5C 331.702,147.957 331.369,148.624 331.5,149.5C 329.372,150.629 327.039,150.796 324.5,150C 322.76,148.483 321.094,146.983 319.5,145.5C 319.279,144.265 318.612,143.265 317.5,142.5C 319.104,140.821 319.771,138.821 319.5,136.5C 318.5,136.5 317.5,136.5 316.5,136.5C 316.5,137.5 316.5,138.5 316.5,139.5C 315.5,139.5 314.5,139.5 313.5,139.5C 313.5,138.167 313.5,136.833 313.5,135.5C 314.5,135.5 315.5,135.5 316.5,135.5C 316.5,133.833 316.5,132.167 316.5,130.5C 317.5,130.5 318.5,130.5 319.5,130.5C 320.043,123.492 319.376,116.659 317.5,110C 318.885,108.403 319.551,106.57 319.5,104.5C 318.5,104.5 317.5,104.5 316.5,104.5C 316.649,105.552 316.483,106.552 316,107.5C 313.434,108.242 311.267,109.575 309.5,111.5C 308.287,111.253 307.62,110.586 307.5,109.5C 317.167,99.1667 327.167,89.1667 337.5,79.5C 342.507,80.3284 344.841,78.1618 344.5,73C 343.85,70.5585 342.183,69.3918 339.5,69.5C 325.747,68.9528 312.08,68.1195 298.5,67C 300.692,68.0669 302.358,69.5669 303.5,71.5C 297.548,74.1398 291.548,76.8065 285.5,79.5C 281.553,79.4435 278.553,81.1102 276.5,84.5C 274.978,85.562 273.312,86.2287 271.5,86.5C 271.5,85.1667 271.5,83.8333 271.5,82.5C 262.167,81.8333 257.833,86.1667 258.5,95.5C 259.833,95.5 261.167,95.5 262.5,95.5C 262.5,96.5 262.5,97.5 262.5,98.5C 260.284,98.7254 258.617,97.8921 257.5,96C 251.509,95.5005 245.509,95.3338 239.5,95.5C 239.5,100.833 239.5,106.167 239.5,111.5C 243.5,110.833 245.167,112.5 244.5,116.5C 246.167,116.5 247.833,116.5 249.5,116.5C 249.5,114.833 249.5,113.167 249.5,111.5C 250.675,111.281 251.675,111.614 252.5,112.5C 251.691,114.071 251.357,115.738 251.5,117.5C 249.919,119.674 248.419,122.007 247,124.5C 244.667,121.5 242.333,118.5 240,115.5C 239.462,118.812 239.962,121.979 241.5,125C 240.387,128.4 239.72,131.9 239.5,135.5C 239.844,141.54 240.51,147.54 241.5,153.5C 240.009,160.763 239.342,168.097 239.5,175.5C 236.043,175.667 235.71,176.667 238.5,178.5C 239.452,180.045 239.785,181.712 239.5,183.5C 239.5,184.5 239.5,185.5 239.5,186.5C 237.278,186.178 235.444,186.845 234,188.5C 232.605,195.285 228.439,198.952 221.5,199.5C 220.699,197.958 220.366,196.292 220.5,194.5C 222.857,194.663 225.19,194.497 227.5,194C 227.957,193.586 228.291,193.086 228.5,192.5C 227.158,191.124 225.825,189.791 224.5,188.5C 223.833,189.5 223.167,190.5 222.5,191.5C 221.566,186.966 219.566,182.966 216.5,179.5C 213.526,178.423 210.526,178.423 207.5,179.5C 207.231,181.429 207.731,183.095 209,184.5C 211.381,183.565 213.881,183.232 216.5,183.5C 216.012,186.711 216.679,189.544 218.5,192C 217.167,192.667 215.833,192.667 214.5,192C 213.5,190.333 212.5,188.667 211.5,187C 210.207,186.51 208.873,186.343 207.5,186.5C 206.167,184.833 204.833,183.167 203.5,181.5C 202.952,179.606 201.952,177.94 200.5,176.5C 202.909,176.242 205.242,176.242 207.5,176.5C 206.047,173.702 205.047,170.702 204.5,167.5C 200.229,162.496 195.229,161.329 189.5,164C 187.496,161.017 187.496,157.85 189.5,154.5C 186.201,147.01 180.868,144.843 173.5,148C 171.979,144.356 171.145,140.523 171,136.5C 169.667,134.5 168.333,132.5 167,130.5C 164.606,129.864 162.106,129.864 159.5,130.5C 159.719,129.325 159.386,128.325 158.5,127.5C 158.167,128.167 157.833,128.833 157.5,129.5C 158.547,131.056 159.214,132.723 159.5,134.5C 165.42,134.024 167.92,136.69 167,142.5C 164.6,140.585 162.1,138.919 159.5,137.5C 157.763,133.925 155.43,130.758 152.5,128C 153.793,127.51 155.127,127.343 156.5,127.5C 157.984,117.649 153.984,113.649 144.5,115.5C 143.571,114.311 143.238,112.978 143.5,111.5C 149.008,110.776 154.008,111.776 158.5,114.5C 159.496,108.202 159.83,101.868 159.5,95.5C 153.5,95.5 147.5,95.5 141.5,95.5C 141.665,99.1817 141.499,102.848 141,106.5C 139.562,107.9 138.729,109.567 138.5,111.5C 140.355,111.272 141.188,111.939 141,113.5C 139.644,114.38 138.144,114.714 136.5,114.5C 135.599,113.71 134.932,112.71 134.5,111.5C 134.901,106.04 135.901,100.707 137.5,95.5C 138.5,95.5 139.5,95.5 140.5,95.5C 140.5,92.8333 140.5,90.1667 140.5,87.5C 139.5,87.5 138.5,87.5 137.5,87.5C 136.908,90.1272 136.575,92.7938 136.5,95.5C 135.5,95.5 134.5,95.5 133.5,95.5C 133.665,98.5184 133.498,101.518 133,104.5C 131.344,102.854 130.511,100.854 130.5,98.5C 131.332,95.5182 131.499,92.5182 131,89.5C 130.29,88.0267 129.124,87.3601 127.5,87.5C 127.649,86.448 127.483,85.448 127,84.5C 124.597,83.5206 123.764,82.0206 124.5,80C 123.207,79.51 121.873,79.3433 120.5,79.5C 120.094,77.8908 120.094,76.5575 120.5,75.5C 121.425,76.6405 122.259,76.6405 123,75.5C 126.83,80.1578 128.33,79.4911 127.5,73.5C 126.178,73.67 125.011,73.3366 124,72.5C 123.505,70.5273 123.338,68.5273 123.5,66.5C 124.833,66.5 126.167,66.5 127.5,66.5C 127.5,65.5 127.5,64.5 127.5,63.5C 125.833,63.5 124.167,63.5 122.5,63.5C 122.5,64.5 122.5,65.5 122.5,66.5C 116.173,65.8183 109.839,65.6516 103.5,66C 102.62,67.3561 102.286,68.8561 102.5,70.5C 106.514,70.3345 110.514,70.5012 114.5,71C 117.184,72.8453 116.851,74.012 113.5,74.5C 107.478,73.4889 101.478,72.4889 95.5,71.5C 95.5,69.5 95.5,67.5 95.5,65.5C 97.2012,65.9662 98.7012,65.9662 100,65.5C 100.333,66.5 100.667,67.5 101,68.5C 101.494,66.8659 101.66,65.1992 101.5,63.5C 103.5,63.5 105.5,63.5 107.5,63.5C 107.5,62.1667 107.5,60.8333 107.5,59.5C 108.833,59.5 110.167,59.5 111.5,59.5C 111.5,55.5 111.5,51.5 111.5,47.5C 115.315,47.2883 115.315,46.6216 111.5,45.5C 110.328,45.9186 109.328,46.5853 108.5,47.5C 107.803,51.3771 107.136,55.2104 106.5,59C 101.845,59.4992 97.1785,59.6658 92.5,59.5C 91.6371,54.0984 93.9705,51.4318 99.5,51.5C 100.731,48.0146 103.065,45.6813 106.5,44.5C 107.425,43.6431 108.092,42.6431 108.5,41.5C 112.327,42.0129 115.994,43.0129 119.5,44.5C 120.833,44.3333 122.167,44.1667 123.5,44C 124.451,43.2825 124.617,42.4491 124,41.5C 121.619,40.565 119.119,40.2317 116.5,40.5C 116.5,39.1667 116.5,37.8333 116.5,36.5C 119.052,34.0568 122.052,32.3901 125.5,31.5C 128.822,30.5081 132.155,29.5081 135.5,28.5C 137.96,28.637 139.96,29.637 141.5,31.5C 147.903,30.4068 153.903,28.4068 159.5,25.5C 159.762,24.0222 159.429,22.6888 158.5,21.5C 154.059,23.1869 149.726,25.0202 145.5,27C 143.833,27.6667 142.167,27.6667 140.5,27C 142.362,25.6343 144.028,24.1343 145.5,22.5C 150.21,19.1538 155.544,16.8205 161.5,15.5C 166.222,15.1518 170.889,14.4851 175.5,13.5C 179.75,13.6386 183.916,14.3053 188,15.5C 193.429,14.2476 198.929,13.5809 204.5,13.5C 224.706,16.088 245.706,16.088 267.5,13.5C 271.5,13.6667 275.5,13.8333 279.5,14C 279.167,14.3333 278.833,14.6667 278.5,15C 289.692,15.4726 290.025,14.4726 279.5,12C 281.116,10.9229 282.949,10.4229 285,10.5C 290.85,12.9047 297.017,14.238 303.5,14.5C 303.5,17.1667 303.5,19.8333 303.5,22.5C 304.552,22.3505 305.552,22.5172 306.5,23C 307.5,24.6667 308.5,26.3333 309.5,28C 312.854,28.4552 316.187,28.9552 319.5,29.5C 319.5,28.1667 319.5,26.8333 319.5,25.5C 321.359,25.5391 322.692,24.7058 323.5,23C 325.134,22.5065 326.801,22.3398 328.5,22.5 Z"/></g>
<g><path style="opacity:1" fill="#cbd2ea" d="M 313.5,15.5 C 316.787,16.1614 320.12,16.6614 323.5,17C 325.805,18.9232 328.138,20.7565 330.5,22.5C 330.167,22.5 329.833,22.5 329.5,22.5C 329.167,22.5 328.833,22.5 328.5,22.5C 323.52,20.0141 318.52,17.6808 313.5,15.5 Z"/></g>
<g><path style="opacity:1" fill="#4453a8" d="M 125.5,31.5 C 129.738,29.0406 134.072,26.5406 138.5,24C 140.813,23.338 143.146,22.838 145.5,22.5C 144.028,24.1343 142.362,25.6343 140.5,27C 142.167,27.6667 143.833,27.6667 145.5,27C 149.726,25.0202 154.059,23.1869 158.5,21.5C 159.429,22.6888 159.762,24.0222 159.5,25.5C 153.903,28.4068 147.903,30.4068 141.5,31.5C 139.96,29.637 137.96,28.637 135.5,28.5C 132.155,29.5081 128.822,30.5081 125.5,31.5 Z"/></g>
<g><path style="opacity:1" fill="#4552a6" d="M 329.5,22.5 C 329.833,22.5 330.167,22.5 330.5,22.5C 340.684,27.0878 350.351,32.4211 359.5,38.5C 357.833,38.5 356.167,38.5 354.5,38.5C 354.5,39.5 354.5,40.5 354.5,41.5C 353.5,41.5 352.5,41.5 351.5,41.5C 351.328,39.5082 351.995,37.8415 353.5,36.5C 351.5,35.8333 349.5,35.1667 347.5,34.5C 347.167,32.8333 346.167,31.8333 344.5,31.5C 341.673,30.0678 338.673,29.4012 335.5,29.5C 335.5,28.5 335.5,27.5 335.5,26.5C 333.833,26.5 332.167,26.5 330.5,26.5C 330.5,27.5 330.5,28.5 330.5,29.5C 328.023,29.9492 326.023,29.2825 324.5,27.5C 326.045,26.5481 327.712,26.2148 329.5,26.5C 329.5,25.1667 329.5,23.8333 329.5,22.5 Z"/></g>
<g><path style="opacity:1" fill="#4254a7" d="M 116.5,36.5 C 116.5,37.8333 116.5,39.1667 116.5,40.5C 119.119,40.2317 121.619,40.565 124,41.5C 124.617,42.4491 124.451,43.2825 123.5,44C 122.167,44.1667 120.833,44.3333 119.5,44.5C 115.994,43.0129 112.327,42.0129 108.5,41.5C 110.822,39.336 113.489,37.6693 116.5,36.5 Z"/></g>
<g><path style="opacity:1" fill="#4a59a3" d="M 337.5,79.5 C 338.81,77.8523 340.143,76.1856 341.5,74.5C 339.997,72.5784 337.997,71.4117 335.5,71C 324.78,68.8765 314.113,69.0431 303.5,71.5C 302.358,69.5669 300.692,68.0669 298.5,67C 312.08,68.1195 325.747,68.9528 339.5,69.5C 342.183,69.3918 343.85,70.5585 344.5,73C 344.841,78.1618 342.507,80.3284 337.5,79.5 Z"/></g>
<g><path style="opacity:1" fill="#565ca3" d="M 79.5,63.5 C 78.9278,65.2554 78.0945,66.9221 77,68.5C 72.6069,72.4026 68.1069,76.0693 63.5,79.5C 68.5,73.8333 73.8333,68.5 79.5,63.5 Z"/></g>
<g><path style="opacity:1" fill="#4253a8" d="M 367.5,43.5 C 370.042,45.2051 372.708,46.7051 375.5,48C 381.336,53.0042 387.003,58.1708 392.5,63.5C 391.275,64.1522 390.608,65.3189 390.5,67C 390.667,68.1667 390.833,69.3333 391,70.5C 393.565,72.1793 396.398,72.846 399.5,72.5C 399.281,73.675 399.614,74.675 400.5,75.5C 401.429,74.3112 401.762,72.9778 401.5,71.5C 413.975,83.3169 424.642,96.6502 433.5,111.5C 432.265,111.279 431.265,110.612 430.5,109.5C 426.737,112.313 423.07,112.146 419.5,109C 417.33,104.696 415.997,100.196 415.5,95.5C 416.5,95.5 417.5,95.5 418.5,95.5C 418.5,97.1667 418.5,98.8333 418.5,100.5C 419.5,100.5 420.5,100.5 421.5,100.5C 421.785,98.712 421.452,97.0453 420.5,95.5C 417.256,90.9549 413.423,86.9549 409,83.5C 408.439,81.2746 407.439,79.2746 406,77.5C 404.951,76.4829 403.784,76.3162 402.5,77C 400.819,80.4665 399.819,80.2998 399.5,76.5C 396.813,76.6641 394.146,76.4974 391.5,76C 390.1,74.5619 388.433,73.7286 386.5,73.5C 385.524,69.2366 385.191,65.0699 385.5,61C 384.127,60.1251 382.627,59.6251 381,59.5C 376.539,60.3449 372.039,60.6782 367.5,60.5C 367.5,58.8333 367.5,57.1667 367.5,55.5C 370.167,55.5 372.833,55.5 375.5,55.5C 375.657,54.1266 375.49,52.7932 375,51.5C 371.963,49.2973 369.463,46.6306 367.5,43.5 Z"/></g>
<g><path style="opacity:1" fill="#404db9" d="M 392.5,63.5 C 396.126,65.4593 399.126,68.126 401.5,71.5C 401.762,72.9778 401.429,74.3112 400.5,75.5C 399.614,74.675 399.281,73.675 399.5,72.5C 396.398,72.846 393.565,72.1793 391,70.5C 390.833,69.3333 390.667,68.1667 390.5,67C 390.608,65.3189 391.275,64.1522 392.5,63.5 Z"/></g>
<g><path style="opacity:1" fill="#fafbfb" d="M 337.5,79.5 C 327.167,89.1667 317.167,99.1667 307.5,109.5C 301.774,113.297 299.607,118.631 301,125.5C 304.277,130.447 307.944,135.114 312,139.5C 314.305,141.821 316.805,143.821 319.5,145.5C 321.094,146.983 322.76,148.483 324.5,150C 327.039,150.796 329.372,150.629 331.5,149.5C 335.049,148.277 338.049,146.277 340.5,143.5C 341.239,143.631 341.906,143.464 342.5,143C 349.034,135.967 355.701,129.134 362.5,122.5C 364.191,121.136 365.858,119.803 367.5,118.5C 369.288,118.785 370.955,118.452 372.5,117.5C 376.158,112.53 379.991,112.53 384,117.5C 384.5,128.161 384.667,138.828 384.5,149.5C 384.322,153.502 383.322,157.169 381.5,160.5C 378.842,165.495 376.175,170.495 373.5,175.5C 372.833,175.5 372.5,175.833 372.5,176.5C 366.881,182.785 360.881,188.785 354.5,194.5C 352.973,194.427 351.973,195.094 351.5,196.5C 348.802,196.845 346.802,198.178 345.5,200.5C 339.89,202.471 334.556,204.804 329.5,207.5C 320.826,208.799 312.16,208.799 303.5,207.5C 300.149,206.33 296.815,204.83 293.5,203C 290.833,202.333 288.167,202.333 285.5,203C 280.331,207.003 275.664,211.503 271.5,216.5C 268.806,218.527 266.473,220.861 264.5,223.5C 262.007,226.476 260.007,229.809 258.5,233.5C 259.253,236.382 260.919,238.382 263.5,239.5C 266.519,243.088 270.019,246.088 274,248.5C 278.333,246.846 282.167,244.346 285.5,241C 288.833,240.333 292.167,240.333 295.5,241C 298.369,242.596 301.036,244.43 303.5,246.5C 306.272,249.694 309.272,252.694 312.5,255.5C 314.5,258.167 316.833,260.5 319.5,262.5C 328.86,272.527 338.527,282.194 348.5,291.5C 351.984,295.93 355.984,299.93 360.5,303.5C 364.947,309.737 370.281,315.07 376.5,319.5C 380.5,325.5 385.5,330.5 391.5,334.5C 391.5,334.833 391.5,335.167 391.5,335.5C 398.184,341.356 404.018,348.022 409,355.5C 409.667,358.167 409.667,360.833 409,363.5C 401.876,372.658 393.71,380.825 384.5,388C 383.695,389.113 383.028,390.279 382.5,391.5C 380.973,391.427 379.973,392.094 379.5,393.5C 377.167,395.5 374.833,397.5 372.5,399.5C 368.404,401.28 364.071,401.946 359.5,401.5C 357.795,399.808 355.795,398.475 353.5,397.5C 336.445,380.113 319.445,362.78 302.5,345.5C 299.5,341.833 296.167,338.5 292.5,335.5C 292.167,335.5 291.833,335.5 291.5,335.5C 291.631,334.761 291.464,334.094 291,333.5C 280.633,323.633 270.466,313.633 260.5,303.5C 256.134,299.772 252.467,295.439 249.5,290.5C 248.313,284.614 250.146,279.948 255,276.5C 255.83,278.828 256.663,281.162 257.5,283.5C 257.43,284.772 257.097,285.938 256.5,287C 258.81,287.497 261.143,287.663 263.5,287.5C 264.211,284.136 263.044,281.803 260,280.5C 259.667,278.5 259.333,276.5 259,274.5C 257.368,273.472 255.868,272.472 254.5,271.5C 257.729,268.21 258.062,264.877 255.5,261.5C 253.43,257.593 250.43,254.427 246.5,252C 245,251.5 243.5,251 242,250.5C 240.699,250.639 239.866,251.305 239.5,252.5C 234.27,258.613 229.27,264.946 224.5,271.5C 223.662,271.842 223.328,272.508 223.5,273.5C 219.047,277.612 215.38,282.278 212.5,287.5C 212.167,287.5 211.833,287.5 211.5,287.5C 198.404,302.927 186.071,318.927 174.5,335.5C 168.806,340.866 163.806,346.866 159.5,353.5C 157.359,355.122 155.692,357.122 154.5,359.5C 152.122,361.878 150.122,364.545 148.5,367.5C 148.167,367.5 147.833,367.5 147.5,367.5C 143.197,372.809 138.863,378.142 134.5,383.5C 133.167,383.5 132.5,384.167 132.5,385.5C 126.226,391.601 119.226,396.768 111.5,401C 109.482,401.505 107.482,402.005 105.5,402.5C 98.3781,402.825 91.3781,402.159 84.5,400.5C 81.9959,399.416 79.6626,398.083 77.5,396.5C 70.6506,390.946 65.984,383.946 63.5,375.5C 63.5,370.833 63.5,366.167 63.5,361.5C 64.9558,358.386 66.1225,355.052 67,351.5C 68.045,350.627 68.8783,349.627 69.5,348.5C 76.5,340.167 84.1667,332.5 92.5,325.5C 98.2148,320.452 103.548,315.119 108.5,309.5C 111.603,307.577 114.603,305.41 117.5,303C 118.305,301.887 118.972,300.721 119.5,299.5C 120.391,298.89 121.391,298.557 122.5,298.5C 124.5,297.167 126.167,295.5 127.5,293.5C 127.5,293.167 127.5,292.833 127.5,292.5C 134.517,286.813 141.183,280.813 147.5,274.5C 154.851,268.814 161.518,262.48 167.5,255.5C 171.806,253.194 175.473,250.194 178.5,246.5C 181.192,244.138 183.859,241.804 186.5,239.5C 188.5,238.167 190.167,236.5 191.5,234.5C 196.079,231.593 200.079,227.926 203.5,223.5C 207.087,220.305 208.254,216.305 207,211.5C 202.626,205.625 197.459,200.625 191.5,196.5C 191.631,195.761 191.464,195.094 191,194.5C 180.71,184.227 170.21,174.227 159.5,164.5C 159.631,163.761 159.464,163.094 159,162.5C 154.041,157.556 148.874,152.89 143.5,148.5C 143.5,148.167 143.5,147.833 143.5,147.5C 134.902,137.398 125.235,128.564 114.5,121C 109.785,120.719 105.118,120.219 100.5,119.5C 95.5641,115.904 90.8974,111.904 86.5,107.5C 84.1496,105.787 83.1496,103.453 83.5,100.5C 84.4151,98.2459 85.7484,96.2459 87.5,94.5C 90.3347,91.8347 93.3347,89.3347 96.5,87C 99.7274,82.9486 103.061,79.1152 106.5,75.5C 111.133,75.9903 115.467,77.3236 119.5,79.5C 121.008,82.3607 123.174,84.694 126,86.5C 128.973,92.0513 130.307,98.0513 130,104.5C 131.419,106.993 132.919,109.326 134.5,111.5C 134.932,112.71 135.599,113.71 136.5,114.5C 140.167,118.833 144.167,122.833 148.5,126.5C 148.842,127.338 149.508,127.672 150.5,127.5C 152.788,131.456 155.788,134.789 159.5,137.5C 164.617,142.74 169.951,147.74 175.5,152.5C 176.833,155.833 179.167,158.167 182.5,159.5C 186.795,165.463 191.795,170.796 197.5,175.5C 197.833,175.5 198.167,175.5 198.5,175.5C 199.443,178.109 201.11,180.109 203.5,181.5C 204.833,183.167 206.167,184.833 207.5,186.5C 211.818,191.305 216.485,195.639 221.5,199.5C 224.107,200.802 226.773,200.636 229.5,199C 234.333,192.833 239.833,187.333 246,182.5C 247.705,180.423 248.872,178.09 249.5,175.5C 250.586,175.38 251.253,174.713 251.5,173.5C 252.015,171.364 252.349,169.197 252.5,167C 251.259,159.609 249.592,152.442 247.5,145.5C 247.334,140.156 247.501,134.823 248,129.5C 249.463,125.577 250.63,121.577 251.5,117.5C 257.092,107.266 263.759,97.9328 271.5,89.5C 276.45,86.5475 281.117,83.2141 285.5,79.5C 291.548,76.8065 297.548,74.1398 303.5,71.5C 314.113,69.0431 324.78,68.8765 335.5,71C 337.997,71.4117 339.997,72.5784 341.5,74.5C 340.143,76.1856 338.81,77.8523 337.5,79.5 Z"/></g>
<g><path style="opacity:1" fill="#43569a" d="M 285.5,79.5 C 281.117,83.2141 276.45,86.5475 271.5,89.5C 271.5,88.5 271.5,87.5 271.5,86.5C 273.312,86.2287 274.978,85.562 276.5,84.5C 278.553,81.1102 281.553,79.4435 285.5,79.5 Z"/></g>
<g><path style="opacity:1" fill="#4a5798" d="M 106.5,75.5 C 103.061,79.1152 99.7274,82.9486 96.5,87C 93.3347,89.3347 90.3347,91.8347 87.5,94.5C 87.0942,88.5954 89.7609,85.9288 95.5,86.5C 95.5,85.1667 95.5,83.8333 95.5,82.5C 96.552,82.6495 97.552,82.4828 98.5,82C 99.9763,80.2865 101.31,78.4532 102.5,76.5C 103.736,75.7542 105.07,75.4208 106.5,75.5 Z"/></g>
<g><path style="opacity:1" fill="#4151b3" d="M 108.5,41.5 C 108.092,42.6431 107.425,43.6431 106.5,44.5C 103.065,45.6813 100.731,48.0146 99.5,51.5C 93.9705,51.4318 91.6371,54.0984 92.5,59.5C 97.1785,59.6658 101.845,59.4992 106.5,59C 107.136,55.2104 107.803,51.3771 108.5,47.5C 109.328,46.5853 110.328,45.9186 111.5,45.5C 115.315,46.6216 115.315,47.2883 111.5,47.5C 111.5,51.5 111.5,55.5 111.5,59.5C 110.167,59.5 108.833,59.5 107.5,59.5C 107.5,60.8333 107.5,62.1667 107.5,63.5C 105.5,63.5 103.5,63.5 101.5,63.5C 101.66,65.1992 101.494,66.8659 101,68.5C 100.667,67.5 100.333,66.5 100,65.5C 98.7012,65.9662 97.2012,65.9662 95.5,65.5C 95.5,67.5 95.5,69.5 95.5,71.5C 101.478,72.4889 107.478,73.4889 113.5,74.5C 116.851,74.012 117.184,72.8453 114.5,71C 110.514,70.5012 106.514,70.3345 102.5,70.5C 102.286,68.8561 102.62,67.3561 103.5,66C 109.839,65.6516 116.173,65.8183 122.5,66.5C 122.5,65.5 122.5,64.5 122.5,63.5C 124.167,63.5 125.833,63.5 127.5,63.5C 127.5,64.5 127.5,65.5 127.5,66.5C 126.167,66.5 124.833,66.5 123.5,66.5C 123.338,68.5273 123.505,70.5273 124,72.5C 125.011,73.3366 126.178,73.67 127.5,73.5C 128.33,79.4911 126.83,80.1578 123,75.5C 122.259,76.6405 121.425,76.6405 120.5,75.5C 120.094,76.5575 120.094,77.8908 120.5,79.5C 120.167,79.5 119.833,79.5 119.5,79.5C 115.467,77.3236 111.133,75.9903 106.5,75.5C 105.07,75.4208 103.736,75.7542 102.5,76.5C 101.31,78.4532 99.9763,80.2865 98.5,82C 97.552,82.4828 96.552,82.6495 95.5,82.5C 95.5,83.8333 95.5,85.1667 95.5,86.5C 89.7609,85.9288 87.0942,88.5954 87.5,94.5C 85.7484,96.2459 84.4151,98.2459 83.5,100.5C 81.6698,103.978 82.6698,106.311 86.5,107.5C 90.8974,111.904 95.5641,115.904 100.5,119.5C 100.5,120.5 100.5,121.5 100.5,122.5C 97.4824,122.296 94.4824,121.963 91.5,121.5C 91.5,122.5 91.5,123.5 91.5,124.5C 87.1521,124.599 83.1521,125.599 79.5,127.5C 80.4775,125.336 81.4775,123.17 82.5,121C 80.7586,118.739 79.7586,116.073 79.5,113C 80.0963,110.15 80.7629,107.317 81.5,104.5C 80.8208,101.494 80.1542,98.494 79.5,95.5C 74.1667,95.5 68.8333,95.5 63.5,95.5C 63.5,99.5 63.5,103.5 63.5,107.5C 62.1667,107.5 60.8333,107.5 59.5,107.5C 59.5,108.833 59.5,110.167 59.5,111.5C 55.5,111.5 51.5,111.5 47.5,111.5C 47.6495,112.552 47.4828,113.552 47,114.5C 46.2612,112.111 45.0946,110.111 43.5,108.5C 43.0618,108.565 42.7284,108.399 42.5,108C 43.4162,107.626 44.2496,107.126 45,106.5C 46.5156,102.463 49.1823,99.4632 53,97.5C 53.346,95.7818 53.846,94.1151 54.5,92.5C 57.1667,89.5 59.8333,86.5 62.5,83.5C 63.4287,82.3112 63.762,80.9778 63.5,79.5C 68.1069,76.0693 72.6069,72.4026 77,68.5C 78.0945,66.9221 78.9278,65.2554 79.5,63.5C 88.2989,54.9437 97.9656,47.6103 108.5,41.5 Z"/></g>
<g><path style="opacity:1" fill="#4050b6" d="M 91.5,124.5 C 92.7124,125.23 93.7124,126.23 94.5,127.5C 102.169,122.221 110.169,121.388 118.5,125C 120.62,127.409 122.62,129.909 124.5,132.5C 130.67,136.171 135.67,141.004 139.5,147C 140.793,147.49 142.127,147.657 143.5,147.5C 143.5,147.833 143.5,148.167 143.5,148.5C 142.93,152.421 144.597,154.588 148.5,155C 149.255,158.207 151.255,159.707 154.5,159.5C 153.833,163.5 155.5,165.167 159.5,164.5C 159.299,168.637 161.299,170.97 165.5,171.5C 166.429,172.689 166.762,174.022 166.5,175.5C 167.5,175.5 168.5,175.5 169.5,175.5C 169.608,177.783 170.441,179.783 172,181.5C 173,182.833 174,182.833 175,181.5C 175.483,182.448 175.649,183.448 175.5,184.5C 176.959,184.433 178.292,184.766 179.5,185.5C 179.5,186.833 179.5,188.167 179.5,189.5C 178.167,189.5 176.833,189.5 175.5,189.5C 175.728,187.645 175.061,186.812 173.5,187C 172.62,188.356 172.286,189.856 172.5,191.5C 173.5,191.5 174.5,191.5 175.5,191.5C 175.192,193.924 175.526,196.257 176.5,198.5C 178.069,199.714 178.902,201.381 179,203.5C 181.176,203.988 183.009,204.988 184.5,206.5C 186.743,207.474 189.076,207.808 191.5,207.5C 191.238,206.022 191.571,204.689 192.5,203.5C 193.981,204.48 195.315,205.647 196.5,207C 195.552,207.483 194.552,207.649 193.5,207.5C 192.373,209.998 191.706,212.664 191.5,215.5C 191.403,217.945 192.07,220.111 193.5,222C 190.543,224.184 190.877,225.351 194.5,225.5C 194.5,226.833 194.5,228.167 194.5,229.5C 192.121,230.567 191.121,229.567 191.5,226.5C 187.397,225.769 183.897,226.769 181,229.5C 178.742,232.944 176.909,236.61 175.5,240.5C 176.325,241.386 177.325,241.719 178.5,241.5C 178.5,243.167 178.5,244.833 178.5,246.5C 175.473,250.194 171.806,253.194 167.5,255.5C 164.412,255.361 161.745,254.361 159.5,252.5C 159.5,253.5 159.5,254.5 159.5,255.5C 156.402,255.413 156.068,255.913 158.5,257C 156.665,257.928 156.332,259.094 157.5,260.5C 155.144,262.69 152.644,264.69 150,266.5C 148.659,269.022 147.826,271.689 147.5,274.5C 145.508,274.328 143.842,274.995 142.5,276.5C 140.783,275.332 140.116,273.665 140.5,271.5C 137.159,271.656 134.326,272.989 132,275.5C 132.266,278.901 130.766,280.567 127.5,280.5C 127.5,282.167 127.5,283.833 127.5,285.5C 128.978,285.238 130.311,285.571 131.5,286.5C 129.31,288.007 127.976,290.007 127.5,292.5C 127.5,292.833 127.5,293.167 127.5,293.5C 124.833,294.167 123.167,295.833 122.5,298.5C 121.391,298.557 120.391,298.89 119.5,299.5C 118.609,298.739 117.942,297.739 117.5,296.5C 119.833,294.833 121.833,292.833 123.5,290.5C 124.386,289.675 124.719,288.675 124.5,287.5C 123.167,287.5 121.833,287.5 120.5,287.5C 120.5,288.5 120.5,289.5 120.5,290.5C 117.254,290.865 114.588,289.865 112.5,287.5C 112.167,288.167 111.833,288.833 111.5,289.5C 112.28,290.949 112.946,292.449 113.5,294C 112.131,297.012 111.464,300.179 111.5,303.5C 109.833,303.5 108.167,303.5 106.5,303.5C 106.675,305.621 106.341,307.621 105.5,309.5C 101.558,312.612 98.0576,316.279 95,320.5C 93.1862,319.24 91.3529,319.24 89.5,320.5C 91.756,321.421 92.756,323.088 92.5,325.5C 84.1667,332.5 76.5,340.167 69.5,348.5C 67.0882,348.306 66.0882,346.973 66.5,344.5C 65.5,344.5 64.5,344.5 63.5,344.5C 63.2224,347.29 63.8891,349.79 65.5,352C 65.4301,352.765 65.0967,353.265 64.5,353.5C 59.1299,351.621 53.4632,350.955 47.5,351.5C 47.5,353.167 47.5,354.833 47.5,356.5C 46.5,356.5 45.5,356.5 44.5,356.5C 44.6621,358.527 44.4955,360.527 44,362.5C 40.956,361.197 39.7893,358.864 40.5,355.5C 41.8333,355.5 43.1667,355.5 44.5,355.5C 44.5,354.167 44.5,352.833 44.5,351.5C 42.8333,351.5 41.1667,351.5 39.5,351.5C 39.8333,354.5 38.5,355.833 35.5,355.5C 35.5,355.167 35.5,354.833 35.5,354.5C 35.5,353.5 35.5,352.5 35.5,351.5C 36.5,351.5 37.5,351.5 38.5,351.5C 38.5,349.833 38.5,348.167 38.5,346.5C 41.3903,346.278 44.057,346.945 46.5,348.5C 47.48,345.914 47.8134,343.247 47.5,340.5C 44.1667,340.5 42.5,338.833 42.5,335.5C 39.7531,335.187 37.0865,335.52 34.5,336.5C 35.9459,338.618 36.6126,340.951 36.5,343.5C 34.8561,343.286 33.3561,343.62 32,344.5C 31.3333,343.833 30.6667,343.167 30,342.5C 28.8075,338.797 27.6408,335.13 26.5,331.5C 27.5,331.5 28.5,331.5 29.5,331.5C 29.6621,329.473 29.4955,327.473 29,325.5C 28.586,325.043 28.086,324.709 27.5,324.5C 26.6433,325.736 25.9766,327.069 25.5,328.5C 24.675,329.386 23.675,329.719 22.5,329.5C 21.1077,327.727 19.941,325.727 19,323.5C 16.8555,316.89 15.0222,310.223 13.5,303.5C 13.6641,300.813 13.4974,298.146 13,295.5C 10.3939,289.787 8.89392,283.787 8.5,277.5C 7.81815,276.757 7.15149,276.091 6.5,275.5C 6.5,274.5 6.5,273.5 6.5,272.5C 4.77801,249.845 4.44468,227.178 5.5,204.5C 5.77044,199.972 6.43711,195.639 7.5,191.5C 8.84647,188.092 10.6798,184.759 13,181.5C 14.1602,187.605 13.1602,193.272 10,198.5C 9.50204,201.482 9.33537,204.482 9.5,207.5C 10.8333,207.5 12.1667,207.5 13.5,207.5C 13.3243,202.12 13.6576,196.787 14.5,191.5C 20.1667,191.5 25.8333,191.5 31.5,191.5C 31.6665,179.162 31.4999,166.829 31,154.5C 29.7308,155.905 29.2308,157.571 29.5,159.5C 28.5,159.5 27.5,159.5 26.5,159.5C 26.5382,156.049 27.2049,152.716 28.5,149.5C 28.1667,147.167 27.1667,146.833 25.5,148.5C 23.4944,152.203 21.4944,155.869 19.5,159.5C 19.1667,158.5 18.8333,157.5 18.5,156.5C 19.4589,152.27 20.7922,148.27 22.5,144.5C 22.5,144.167 22.5,143.833 22.5,143.5C 24.083,142.064 25.583,140.398 27,138.5C 28.3809,134.346 29.8809,130.346 31.5,126.5C 31.5,125.833 31.5,125.167 31.5,124.5C 32.4959,124.586 33.3292,124.252 34,123.5C 34.8372,121.649 35.6705,119.816 36.5,118C 37.7932,117.51 39.1266,117.343 40.5,117.5C 40.5,119.833 40.5,122.167 40.5,124.5C 41.8221,124.67 42.9887,124.337 44,123.5C 45.0946,119.437 44.2613,115.937 41.5,113C 41.5186,111.167 42.1852,109.667 43.5,108.5C 45.0946,110.111 46.2612,112.111 47,114.5C 47.4828,113.552 47.6495,112.552 47.5,111.5C 51.5,111.5 55.5,111.5 59.5,111.5C 59.5,110.167 59.5,108.833 59.5,107.5C 60.8333,107.5 62.1667,107.5 63.5,107.5C 63.5,103.5 63.5,99.5 63.5,95.5C 68.8333,95.5 74.1667,95.5 79.5,95.5C 80.1542,98.494 80.8208,101.494 81.5,104.5C 80.7629,107.317 80.0963,110.15 79.5,113C 79.7586,116.073 80.7586,118.739 82.5,121C 81.4775,123.17 80.4775,125.336 79.5,127.5C 83.1521,125.599 87.1521,124.599 91.5,124.5 Z"/></g>
<g><path style="opacity:1" fill="#4052af" d="M 159.5,137.5 C 155.788,134.789 152.788,131.456 150.5,127.5C 152.742,121.577 150.742,119.077 144.5,120C 146.085,122.069 147.419,124.236 148.5,126.5C 144.167,122.833 140.167,118.833 136.5,114.5C 138.144,114.714 139.644,114.38 141,113.5C 141.188,111.939 140.355,111.272 138.5,111.5C 138.729,109.567 139.562,107.9 141,106.5C 141.499,102.848 141.665,99.1817 141.5,95.5C 147.5,95.5 153.5,95.5 159.5,95.5C 159.83,101.868 159.496,108.202 158.5,114.5C 154.008,111.776 149.008,110.776 143.5,111.5C 143.238,112.978 143.571,114.311 144.5,115.5C 153.984,113.649 157.984,117.649 156.5,127.5C 155.127,127.343 153.793,127.51 152.5,128C 155.43,130.758 157.763,133.925 159.5,137.5 Z"/></g>
<g><path style="opacity:1" fill="#4051af" d="M 271.5,86.5 C 271.5,87.5 271.5,88.5 271.5,89.5C 263.759,97.9328 257.092,107.266 251.5,117.5C 251.357,115.738 251.691,114.071 252.5,112.5C 251.675,111.614 250.675,111.281 249.5,111.5C 249.5,113.167 249.5,114.833 249.5,116.5C 247.833,116.5 246.167,116.5 244.5,116.5C 245.167,112.5 243.5,110.833 239.5,111.5C 239.5,106.167 239.5,100.833 239.5,95.5C 245.509,95.3338 251.509,95.5005 257.5,96C 258.617,97.8921 260.284,98.7254 262.5,98.5C 262.5,97.5 262.5,96.5 262.5,95.5C 261.167,95.5 259.833,95.5 258.5,95.5C 257.833,86.1667 262.167,81.8333 271.5,82.5C 271.5,83.8333 271.5,85.1667 271.5,86.5 Z"/></g>
<g><path style="opacity:1" fill="#4455a5" d="M 119.5,79.5 C 119.833,79.5 120.167,79.5 120.5,79.5C 121.873,79.3433 123.207,79.51 124.5,80C 123.764,82.0206 124.597,83.5206 127,84.5C 127.483,85.448 127.649,86.448 127.5,87.5C 129.124,87.3601 130.29,88.0267 131,89.5C 131.499,92.5182 131.332,95.5182 130.5,98.5C 130.511,100.854 131.344,102.854 133,104.5C 133.498,101.518 133.665,98.5184 133.5,95.5C 134.5,95.5 135.5,95.5 136.5,95.5C 136.575,92.7938 136.908,90.1272 137.5,87.5C 138.5,87.5 139.5,87.5 140.5,87.5C 140.5,90.1667 140.5,92.8333 140.5,95.5C 139.5,95.5 138.5,95.5 137.5,95.5C 135.901,100.707 134.901,106.04 134.5,111.5C 132.919,109.326 131.419,106.993 130,104.5C 130.307,98.0513 128.973,92.0513 126,86.5C 123.174,84.694 121.008,82.3607 119.5,79.5 Z"/></g>
<g><path style="opacity:1" fill="#727dab" d="M 83.5,100.5 C 83.1496,103.453 84.1496,105.787 86.5,107.5C 82.6698,106.311 81.6698,103.978 83.5,100.5 Z"/></g>
<g><path style="opacity:1" fill="#4855a4" d="M 63.5,79.5 C 63.762,80.9778 63.4287,82.3112 62.5,83.5C 59.8333,86.5 57.1667,89.5 54.5,92.5C 53.846,94.1151 53.346,95.7818 53,97.5C 49.1823,99.4632 46.5156,102.463 45,106.5C 44.2496,107.126 43.4162,107.626 42.5,108C 42.7284,108.399 43.0618,108.565 43.5,108.5C 42.1852,109.667 41.5186,111.167 41.5,113C 44.2613,115.937 45.0946,119.437 44,123.5C 42.9887,124.337 41.8221,124.67 40.5,124.5C 40.5,122.167 40.5,119.833 40.5,117.5C 39.1266,117.343 37.7932,117.51 36.5,118C 35.6705,119.816 34.8372,121.649 34,123.5C 33.3292,124.252 32.4959,124.586 31.5,124.5C 34.6546,118.861 37.8212,113.194 41,107.5C 47.6048,97.4007 55.1048,88.0674 63.5,79.5 Z"/></g>
<g><path style="opacity:1" fill="#4252ae" d="M 319.5,145.5 C 316.805,143.821 314.305,141.821 312,139.5C 307.944,135.114 304.277,130.447 301,125.5C 299.607,118.631 301.774,113.297 307.5,109.5C 307.62,110.586 308.287,111.253 309.5,111.5C 311.267,109.575 313.434,108.242 316,107.5C 316.483,106.552 316.649,105.552 316.5,104.5C 317.5,104.5 318.5,104.5 319.5,104.5C 319.551,106.57 318.885,108.403 317.5,110C 319.376,116.659 320.043,123.492 319.5,130.5C 318.5,130.5 317.5,130.5 316.5,130.5C 316.5,132.167 316.5,133.833 316.5,135.5C 315.5,135.5 314.5,135.5 313.5,135.5C 313.5,136.833 313.5,138.167 313.5,139.5C 314.5,139.5 315.5,139.5 316.5,139.5C 316.5,138.5 316.5,137.5 316.5,136.5C 317.5,136.5 318.5,136.5 319.5,136.5C 319.771,138.821 319.104,140.821 317.5,142.5C 318.612,143.265 319.279,144.265 319.5,145.5 Z"/></g>
<g><path style="opacity:1" fill="#4353ab" d="M 374.5,111.5 C 371.861,113.473 369.527,115.806 367.5,118.5C 365.858,119.803 364.191,121.136 362.5,122.5C 362.5,121.167 362.5,119.833 362.5,118.5C 361.127,118.343 359.793,118.51 358.5,119C 356.772,121.582 354.439,123.082 351.5,123.5C 351.5,122.5 351.5,121.5 351.5,120.5C 352.5,120.5 353.5,120.5 354.5,120.5C 354.343,119.127 354.51,117.793 355,116.5C 356.635,115.274 358.135,113.941 359.5,112.5C 361.167,111.167 362.833,111.167 364.5,112.5C 363.352,114.149 362.019,115.649 360.5,117C 362.047,117.333 363.38,116.833 364.5,115.5C 367.161,111.628 368.161,107.295 367.5,102.5C 368.5,102.5 369.5,102.5 370.5,102.5C 370.5,105.5 370.5,108.5 370.5,111.5C 371.833,111.5 373.167,111.5 374.5,111.5 Z"/></g>
<g><path style="opacity:1" fill="#3f4cc1" d="M 150.5,127.5 C 149.508,127.672 148.842,127.338 148.5,126.5C 147.419,124.236 146.085,122.069 144.5,120C 150.742,119.077 152.742,121.577 150.5,127.5 Z"/></g>
<g><path style="opacity:1" fill="#4658a1" d="M 100.5,119.5 C 105.118,120.219 109.785,120.719 114.5,121C 125.235,128.564 134.902,137.398 143.5,147.5C 142.127,147.657 140.793,147.49 139.5,147C 135.67,141.004 130.67,136.171 124.5,132.5C 122.62,129.909 120.62,127.409 118.5,125C 110.169,121.388 102.169,122.221 94.5,127.5C 93.7124,126.23 92.7124,125.23 91.5,124.5C 91.5,123.5 91.5,122.5 91.5,121.5C 94.4824,121.963 97.4824,122.296 100.5,122.5C 100.5,121.5 100.5,120.5 100.5,119.5 Z"/></g>
<g><path style="opacity:1" fill="#414ebd" d="M 386.5,145.5 C 386.5,144.833 386.5,144.167 386.5,143.5C 387.5,143.5 388.5,143.5 389.5,143.5C 389.5,138.167 389.5,132.833 389.5,127.5C 390.5,127.5 391.5,127.5 392.5,127.5C 392.5,122.167 392.5,116.833 392.5,111.5C 393.5,111.5 394.5,111.5 395.5,111.5C 394.18,122.112 393.513,132.778 393.5,143.5C 392.5,143.5 391.5,143.5 390.5,143.5C 389.236,148.722 388.569,154.055 388.5,159.5C 387.5,159.5 386.5,159.5 385.5,159.5C 386.229,154.87 386.563,150.203 386.5,145.5 Z"/></g>
<g><path style="opacity:1" fill="#ebedf9" d="M 386.5,143.5 C 386.5,144.167 386.5,144.833 386.5,145.5C 385.833,146.833 385.167,148.167 384.5,149.5C 384.667,138.828 384.5,128.161 384,117.5C 379.991,112.53 376.158,112.53 372.5,117.5C 370.955,118.452 369.288,118.785 367.5,118.5C 369.527,115.806 371.861,113.473 374.5,111.5C 376.862,107.999 379.695,107.665 383,110.5C 386.057,121.269 387.223,132.269 386.5,143.5 Z"/></g>
<g><path style="opacity:1" fill="#4a5399" d="M 31.5,126.5 C 29.8809,130.346 28.3809,134.346 27,138.5C 25.583,140.398 24.083,142.064 22.5,143.5C 24.4318,138.4 26.5985,133.4 29,128.5C 29.7083,127.619 30.5416,126.953 31.5,126.5 Z"/></g>
<g><path style="opacity:1" fill="#505b9a" d="M 340.5,143.5 C 338.049,146.277 335.049,148.277 331.5,149.5C 331.369,148.624 331.702,147.957 332.5,147.5C 335.213,146.086 337.88,144.753 340.5,143.5 Z"/></g>
<g><path style="opacity:1" fill="#5760a1" d="M 438.5,119.5 C 443.857,129.209 449.024,139.209 454,149.5C 455.026,152.802 455.86,156.135 456.5,159.5C 452.917,153.145 449.917,146.312 447.5,139C 446.465,137.726 445.298,136.56 444,135.5C 442.329,130.038 440.496,124.705 438.5,119.5 Z"/></g>
<g><path style="opacity:1" fill="#4151b0" d="M 251.5,117.5 C 250.63,121.577 249.463,125.577 248,129.5C 247.501,134.823 247.334,140.156 247.5,145.5C 248.633,152.596 249.633,159.763 250.5,167C 250.202,169.848 249.869,172.681 249.5,175.5C 248.325,175.281 247.325,175.614 246.5,176.5C 244.812,179.521 242.479,181.855 239.5,183.5C 239.785,181.712 239.452,180.045 238.5,178.5C 235.71,176.667 236.043,175.667 239.5,175.5C 239.342,168.097 240.009,160.763 241.5,153.5C 240.51,147.54 239.844,141.54 239.5,135.5C 239.72,131.9 240.387,128.4 241.5,125C 239.962,121.979 239.462,118.812 240,115.5C 242.333,118.5 244.667,121.5 247,124.5C 248.419,122.007 249.919,119.674 251.5,117.5 Z"/></g>
<g><path style="opacity:1" fill="#3f53a7" d="M 203.5,181.5 C 201.11,180.109 199.443,178.109 198.5,175.5C 200.703,169.375 198.703,167.042 192.5,168.5C 194.605,170.592 196.272,172.925 197.5,175.5C 191.795,170.796 186.795,165.463 182.5,159.5C 183.725,158.848 184.392,157.681 184.5,156C 184.667,152.167 182.833,150.333 179,150.5C 177.319,150.608 176.152,151.275 175.5,152.5C 169.951,147.74 164.617,142.74 159.5,137.5C 162.1,138.919 164.6,140.585 167,142.5C 167.92,136.69 165.42,134.024 159.5,134.5C 159.214,132.723 158.547,131.056 157.5,129.5C 157.833,128.833 158.167,128.167 158.5,127.5C 159.386,128.325 159.719,129.325 159.5,130.5C 162.106,129.864 164.606,129.864 167,130.5C 168.333,132.5 169.667,134.5 171,136.5C 171.145,140.523 171.979,144.356 173.5,148C 180.868,144.843 186.201,147.01 189.5,154.5C 187.496,157.85 187.496,161.017 189.5,164C 195.229,161.329 200.229,162.496 204.5,167.5C 205.047,170.702 206.047,173.702 207.5,176.5C 205.242,176.242 202.909,176.242 200.5,176.5C 201.952,177.94 202.952,179.606 203.5,181.5 Z"/></g>
<g><path style="opacity:1" fill="#47589a" d="M 143.5,148.5 C 148.874,152.89 154.041,157.556 159,162.5C 159.464,163.094 159.631,163.761 159.5,164.5C 155.5,165.167 153.833,163.5 154.5,159.5C 151.255,159.707 149.255,158.207 148.5,155C 144.597,154.588 142.93,152.421 143.5,148.5 Z"/></g>
<g><path style="opacity:1" fill="#4252b0" d="M 22.5,144.5 C 20.7922,148.27 19.4589,152.27 18.5,156.5C 18.8333,157.5 19.1667,158.5 19.5,159.5C 21.4944,155.869 23.4944,152.203 25.5,148.5C 27.1667,146.833 28.1667,147.167 28.5,149.5C 27.2049,152.716 26.5382,156.049 26.5,159.5C 27.5,159.5 28.5,159.5 29.5,159.5C 29.2308,157.571 29.7308,155.905 31,154.5C 31.4999,166.829 31.6665,179.162 31.5,191.5C 25.8333,191.5 20.1667,191.5 14.5,191.5C 13.6576,196.787 13.3243,202.12 13.5,207.5C 12.1667,207.5 10.8333,207.5 9.5,207.5C 9.33537,204.482 9.50204,201.482 10,198.5C 13.1602,193.272 14.1602,187.605 13,181.5C 10.6798,184.759 8.84647,188.092 7.5,191.5C 9.79981,177.098 13.6331,163.098 19,149.5C 19.9022,147.569 21.0688,145.903 22.5,144.5 Z"/></g>
<g><path style="opacity:1" fill="#424ebb" d="M 182.5,159.5 C 179.167,158.167 176.833,155.833 175.5,152.5C 176.152,151.275 177.319,150.608 179,150.5C 182.833,150.333 184.667,152.167 184.5,156C 184.392,157.681 183.725,158.848 182.5,159.5 Z"/></g>
<g><path style="opacity:1" fill="#4252b0" d="M 380.5,166.5 C 381.15,164.565 381.483,162.565 381.5,160.5C 383.322,157.169 384.322,153.502 384.5,149.5C 385.167,148.167 385.833,146.833 386.5,145.5C 386.563,150.203 386.229,154.87 385.5,159.5C 386.5,159.5 387.5,159.5 388.5,159.5C 388.569,154.055 389.236,148.722 390.5,143.5C 391.5,143.5 392.5,143.5 393.5,143.5C 393.513,132.778 394.18,122.112 395.5,111.5C 394.5,111.5 393.5,111.5 392.5,111.5C 392.5,116.833 392.5,122.167 392.5,127.5C 391.5,127.5 390.5,127.5 389.5,127.5C 389.5,132.833 389.5,138.167 389.5,143.5C 388.5,143.5 387.5,143.5 386.5,143.5C 387.223,132.269 386.057,121.269 383,110.5C 379.695,107.665 376.862,107.999 374.5,111.5C 375.135,108.507 375.301,105.507 375,102.5C 372.167,101 370,98.8333 368.5,96C 369.5,95.8333 370.5,95.6667 371.5,95.5C 375.319,99.1596 379.319,99.3263 383.5,96C 388.823,95.5006 394.156,95.334 399.5,95.5C 399.666,103.507 399.5,111.507 399,119.5C 397.167,132.819 395.333,146.153 393.5,159.5C 394.833,159.5 396.167,159.5 397.5,159.5C 397.457,156.09 397.957,152.757 399,149.5C 399.5,158.16 399.666,166.827 399.5,175.5C 393.5,175.5 387.5,175.5 381.5,175.5C 381.998,172.99 382.664,170.49 383.5,168C 383.333,166.833 383.167,165.667 383,164.5C 382.292,165.381 381.458,166.047 380.5,166.5 Z"/></g>
<g><path style="opacity:1" fill="#5462a2" d="M 247.5,145.5 C 249.592,152.442 251.259,159.609 252.5,167C 252.349,169.197 252.015,171.364 251.5,173.5C 251.253,174.713 250.586,175.38 249.5,175.5C 249.869,172.681 250.202,169.848 250.5,167C 249.633,159.763 248.633,152.596 247.5,145.5 Z"/></g>
<g><path style="opacity:1" fill="#5b63a5" d="M 381.5,160.5 C 381.483,162.565 381.15,164.565 380.5,166.5C 379.118,169.526 377.785,172.526 376.5,175.5C 375.5,175.5 374.5,175.5 373.5,175.5C 376.175,170.495 378.842,165.495 381.5,160.5 Z"/></g>
<g><path style="opacity:1" fill="#43559d" d="M 159.5,164.5 C 170.21,174.227 180.71,184.227 191,194.5C 191.464,195.094 191.631,195.761 191.5,196.5C 187.062,197.575 185.062,195.908 185.5,191.5C 184.167,191.5 182.833,191.5 181.5,191.5C 181.741,189.102 181.074,187.102 179.5,185.5C 178.292,184.766 176.959,184.433 175.5,184.5C 175.649,183.448 175.483,182.448 175,181.5C 174,182.833 173,182.833 172,181.5C 170.441,179.783 169.608,177.783 169.5,175.5C 168.5,175.5 167.5,175.5 166.5,175.5C 166.762,174.022 166.429,172.689 165.5,171.5C 161.299,170.97 159.299,168.637 159.5,164.5 Z"/></g>
<g><path style="opacity:1" fill="#3f4bc3" d="M 198.5,175.5 C 198.167,175.5 197.833,175.5 197.5,175.5C 196.272,172.925 194.605,170.592 192.5,168.5C 198.703,167.042 200.703,169.375 198.5,175.5 Z"/></g>
<g><path style="opacity:1" fill="#4456ab" d="M 221.5,199.5 C 216.485,195.639 211.818,191.305 207.5,186.5C 208.873,186.343 210.207,186.51 211.5,187C 212.5,188.667 213.5,190.333 214.5,192C 215.833,192.667 217.167,192.667 218.5,192C 216.679,189.544 216.012,186.711 216.5,183.5C 213.881,183.232 211.381,183.565 209,184.5C 207.731,183.095 207.231,181.429 207.5,179.5C 210.526,178.423 213.526,178.423 216.5,179.5C 219.566,182.966 221.566,186.966 222.5,191.5C 223.167,190.5 223.833,189.5 224.5,188.5C 225.825,189.791 227.158,191.124 228.5,192.5C 228.291,193.086 227.957,193.586 227.5,194C 225.19,194.497 222.857,194.663 220.5,194.5C 220.366,196.292 220.699,197.958 221.5,199.5 Z"/></g>
<g><path style="opacity:1" fill="#4553ae" d="M 456.5,159.5 C 459.941,166.407 462.275,173.74 463.5,181.5C 463.5,181.833 463.5,182.167 463.5,182.5C 457.833,183.498 455.499,181.164 456.5,175.5C 455.5,175.5 454.5,175.5 453.5,175.5C 453.064,172.636 453.897,170.303 456,168.5C 456.498,165.518 456.665,162.518 456.5,159.5 Z"/></g>
<g><path style="opacity:1" fill="#535ba2" d="M 372.5,176.5 C 372.785,178.288 372.452,179.955 371.5,181.5C 366.666,187.01 361,191.343 354.5,194.5C 360.881,188.785 366.881,182.785 372.5,176.5 Z"/></g>
<g><path style="opacity:1" fill="#47539c" d="M 249.5,175.5 C 248.872,178.09 247.705,180.423 246,182.5C 239.833,187.333 234.333,192.833 229.5,199C 226.773,200.636 224.107,200.802 221.5,199.5C 228.439,198.952 232.605,195.285 234,188.5C 235.444,186.845 237.278,186.178 239.5,186.5C 239.5,185.5 239.5,184.5 239.5,183.5C 242.479,181.855 244.812,179.521 246.5,176.5C 247.325,175.614 248.325,175.281 249.5,175.5 Z"/></g>
<g><path style="opacity:1" fill="#828abc" d="M 351.5,196.5 C 349.966,198.369 347.966,199.702 345.5,200.5C 346.802,198.178 348.802,196.845 351.5,196.5 Z"/></g>
<g><path style="opacity:1" fill="#5c64a1" d="M 345.5,200.5 C 345.426,202.411 344.426,203.578 342.5,204C 339.859,204.323 337.525,205.323 335.5,207C 333.527,207.495 331.527,207.662 329.5,207.5C 334.556,204.804 339.89,202.471 345.5,200.5 Z"/></g>
<g><path style="opacity:1" fill="#49549b" d="M 303.5,207.5 C 297.294,205.83 290.961,205.33 284.5,206C 282.91,207.046 281.41,208.213 280,209.5C 279.446,214.534 276.613,216.868 271.5,216.5C 275.664,211.503 280.331,207.003 285.5,203C 288.167,202.333 290.833,202.333 293.5,203C 296.815,204.83 300.149,206.33 303.5,207.5 Z"/></g>
<g><path style="opacity:1" fill="#9298c9" d="M 466.5,196.5 C 468.177,200.545 468.844,204.878 468.5,209.5C 466.946,205.433 466.28,201.1 466.5,196.5 Z"/></g>
<g><path style="opacity:1" fill="#4151b0" d="M 179.5,185.5 C 181.074,187.102 181.741,189.102 181.5,191.5C 182.833,191.5 184.167,191.5 185.5,191.5C 185.062,195.908 187.062,197.575 191.5,196.5C 197.459,200.625 202.626,205.625 207,211.5C 208.254,216.305 207.087,220.305 203.5,223.5C 201.833,223.5 200.167,223.5 198.5,223.5C 198.833,220.5 197.5,219.167 194.5,219.5C 194.227,221.451 194.893,222.951 196.5,224C 196.167,224.333 195.833,224.667 195.5,225C 198.038,226.914 197.705,228.414 194.5,229.5C 194.5,228.167 194.5,226.833 194.5,225.5C 190.877,225.351 190.543,224.184 193.5,222C 192.07,220.111 191.403,217.945 191.5,215.5C 191.706,212.664 192.373,209.998 193.5,207.5C 194.552,207.649 195.552,207.483 196.5,207C 195.315,205.647 193.981,204.48 192.5,203.5C 191.571,204.689 191.238,206.022 191.5,207.5C 189.076,207.808 186.743,207.474 184.5,206.5C 183.009,204.988 181.176,203.988 179,203.5C 178.902,201.381 178.069,199.714 176.5,198.5C 175.526,196.257 175.192,193.924 175.5,191.5C 174.5,191.5 173.5,191.5 172.5,191.5C 172.286,189.856 172.62,188.356 173.5,187C 175.061,186.812 175.728,187.645 175.5,189.5C 176.833,189.5 178.167,189.5 179.5,189.5C 179.5,188.167 179.5,186.833 179.5,185.5 Z"/></g>
<g><path style="opacity:1" fill="#4050b2" d="M 303.5,207.5 C 312.16,208.799 320.826,208.799 329.5,207.5C 330.632,209.467 330.299,211.3 328.5,213C 325.964,213.339 323.464,213.839 321,214.5C 315.284,212.769 309.45,211.436 303.5,210.5C 303.5,212.167 303.5,213.833 303.5,215.5C 310.754,216.348 317.921,217.681 325,219.5C 326.833,219.167 328.667,218.833 330.5,218.5C 333.401,212.292 335.068,212.959 335.5,220.5C 333.654,220.222 332.32,220.889 331.5,222.5C 328.5,222.833 325.5,223.167 322.5,223.5C 316.111,223.129 309.777,222.462 303.5,221.5C 303.5,227.5 303.5,233.5 303.5,239.5C 307.773,240.078 311.773,241.411 315.5,243.5C 315.215,245.288 315.548,246.955 316.5,248.5C 319.281,249.787 319.948,251.787 318.5,254.5C 316.378,251.876 314.045,249.376 311.5,247C 310.552,246.517 309.552,246.351 308.5,246.5C 308.343,247.873 308.51,249.207 309,250.5C 311.158,251.489 312.325,253.156 312.5,255.5C 309.272,252.694 306.272,249.694 303.5,246.5C 303.5,245.167 303.5,243.833 303.5,242.5C 300.978,242.872 298.978,242.039 297.5,240C 289.57,238.136 282.57,239.803 276.5,245C 274.866,245.494 273.199,245.66 271.5,245.5C 271.719,244.325 271.386,243.325 270.5,242.5C 269.305,240.703 267.638,239.703 265.5,239.5C 268.477,235.704 270.477,231.37 271.5,226.5C 271.167,225.5 270.833,224.5 270.5,223.5C 269.756,224.991 269.09,226.491 268.5,228C 265.07,228.638 263.737,227.138 264.5,223.5C 266.473,220.861 268.806,218.527 271.5,216.5C 276.613,216.868 279.446,214.534 280,209.5C 281.41,208.213 282.91,207.046 284.5,206C 290.961,205.33 297.294,205.83 303.5,207.5 Z"/></g>
<g><path style="opacity:1" fill="#48549c" d="M 463.5,181.5 C 464.942,186.291 465.942,191.291 466.5,196.5C 466.28,201.1 466.946,205.433 468.5,209.5C 470.12,232.217 469.62,254.884 467,277.5C 466.698,281.245 465.531,284.578 463.5,287.5C 465.526,271.552 467.192,255.552 468.5,239.5C 467.929,226.375 466.429,213.375 464,200.5C 463.501,194.509 463.334,188.509 463.5,182.5C 463.5,182.167 463.5,181.833 463.5,181.5 Z"/></g>
<g><path style="opacity:1" fill="#4055a8" d="M 203.5,223.5 C 200.079,227.926 196.079,231.593 191.5,234.5C 191.5,233.5 191.5,232.5 191.5,231.5C 184.67,230 181.67,232.667 182.5,239.5C 183.833,239.5 185.167,239.5 186.5,239.5C 183.859,241.804 181.192,244.138 178.5,246.5C 178.5,244.833 178.5,243.167 178.5,241.5C 177.325,241.719 176.325,241.386 175.5,240.5C 176.909,236.61 178.742,232.944 181,229.5C 183.897,226.769 187.397,225.769 191.5,226.5C 191.121,229.567 192.121,230.567 194.5,229.5C 197.705,228.414 198.038,226.914 195.5,225C 195.833,224.667 196.167,224.333 196.5,224C 194.893,222.951 194.227,221.451 194.5,219.5C 197.5,219.167 198.833,220.5 198.5,223.5C 200.167,223.5 201.833,223.5 203.5,223.5 Z"/></g>
<g><path style="opacity:1" fill="#4353ac" d="M 264.5,223.5 C 263.737,227.138 265.07,228.638 268.5,228C 269.09,226.491 269.756,224.991 270.5,223.5C 270.833,224.5 271.167,225.5 271.5,226.5C 270.477,231.37 268.477,235.704 265.5,239.5C 264.833,239.5 264.167,239.5 263.5,239.5C 260.919,238.382 259.253,236.382 258.5,233.5C 260.007,229.809 262.007,226.476 264.5,223.5 Z"/></g>
<g><path style="opacity:1" fill="#444eba" d="M 191.5,234.5 C 190.167,236.5 188.5,238.167 186.5,239.5C 185.167,239.5 183.833,239.5 182.5,239.5C 181.67,232.667 184.67,230 191.5,231.5C 191.5,232.5 191.5,233.5 191.5,234.5 Z"/></g>
<g><path style="opacity:1" fill="#4a5699" d="M 263.5,239.5 C 264.167,239.5 264.833,239.5 265.5,239.5C 267.638,239.703 269.305,240.703 270.5,242.5C 271.386,243.325 271.719,244.325 271.5,245.5C 273.199,245.66 274.866,245.494 276.5,245C 282.57,239.803 289.57,238.136 297.5,240C 298.978,242.039 300.978,242.872 303.5,242.5C 303.5,243.833 303.5,245.167 303.5,246.5C 301.036,244.43 298.369,242.596 295.5,241C 292.167,240.333 288.833,240.333 285.5,241C 282.167,244.346 278.333,246.846 274,248.5C 270.019,246.088 266.519,243.088 263.5,239.5 Z"/></g>
<g><path style="opacity:1" fill="#4254a8" d="M 167.5,255.5 C 161.518,262.48 154.851,268.814 147.5,274.5C 147.826,271.689 148.659,269.022 150,266.5C 152.644,264.69 155.144,262.69 157.5,260.5C 156.332,259.094 156.665,257.928 158.5,257C 156.068,255.913 156.402,255.413 159.5,255.5C 159.5,254.5 159.5,253.5 159.5,252.5C 161.745,254.361 164.412,255.361 167.5,255.5 Z"/></g>
<g><path style="opacity:1" fill="#48559c" d="M 5.5,204.5 C 4.44468,227.178 4.77801,249.845 6.5,272.5C 4.03752,260.611 3.03752,248.445 3.5,236C 3.29823,225.287 3.96489,214.787 5.5,204.5 Z"/></g>
<g><path style="opacity:1" fill="#4655a1" d="M 239.5,252.5 C 239.214,254.277 238.547,255.944 237.5,257.5C 239.42,260.365 239.753,263.365 238.5,266.5C 237.692,264.577 237.192,262.577 237,260.5C 233.925,261.314 232.258,263.314 232,266.5C 229.856,268.919 227.356,270.586 224.5,271.5C 229.27,264.946 234.27,258.613 239.5,252.5 Z"/></g>
<g><path style="opacity:1" fill="#46578a" d="M 312.5,255.5 C 313.978,255.238 315.311,255.571 316.5,256.5C 316.879,258.213 317.879,259.213 319.5,259.5C 319.5,260.5 319.5,261.5 319.5,262.5C 316.833,260.5 314.5,258.167 312.5,255.5 Z"/></g>
<g><path style="opacity:1" fill="#4753a6" d="M 302.5,265.5 C 300.516,265.617 298.85,264.95 297.5,263.5C 295.591,264.348 293.591,264.682 291.5,264.5C 291.5,265.833 291.5,267.167 291.5,268.5C 287.831,266.562 286.664,263.562 288,259.5C 290.312,257.536 292.812,257.203 295.5,258.5C 297.548,261.215 299.882,263.548 302.5,265.5 Z"/></g>
<g><path style="opacity:1" fill="#3e4cb9" d="M 302.5,265.5 C 304.137,267.475 305.804,269.475 307.5,271.5C 308.815,274.55 307.815,275.217 304.5,273.5C 303.378,275.044 303.711,276.377 305.5,277.5C 305.192,278.308 304.692,278.975 304,279.5C 302.833,277.167 301.667,274.833 300.5,272.5C 301.5,271.833 302.5,271.167 303.5,270.5C 302.009,269.756 300.509,269.09 299,268.5C 298.692,269.308 298.192,269.975 297.5,270.5C 295.929,269.691 294.262,269.357 292.5,269.5C 291.833,269.5 291.5,269.167 291.5,268.5C 291.5,267.167 291.5,265.833 291.5,264.5C 293.591,264.682 295.591,264.348 297.5,263.5C 298.85,264.95 300.516,265.617 302.5,265.5 Z"/></g>
<g><path style="opacity:1" fill="#f7f9fc" d="M 254.5,271.5 C 255.868,272.472 257.368,273.472 259,274.5C 259.333,276.5 259.667,278.5 260,280.5C 263.044,281.803 264.211,284.136 263.5,287.5C 261.143,287.663 258.81,287.497 256.5,287C 257.097,285.938 257.43,284.772 257.5,283.5C 256.663,281.162 255.83,278.828 255,276.5C 250.146,279.948 248.313,284.614 249.5,290.5C 245.768,282.859 247.435,276.526 254.5,271.5 Z"/></g>
<g><path style="opacity:1" fill="#4155a6" d="M 319.5,259.5 C 323.147,259.622 325.981,261.288 328,264.5C 328.715,271.552 332.548,275.052 339.5,275C 344.464,279.428 347.464,284.928 348.5,291.5C 338.527,282.194 328.86,272.527 319.5,262.5C 319.5,261.5 319.5,260.5 319.5,259.5 Z"/></g>
<g><path style="opacity:1" fill="#4a56a2" d="M 255.5,261.5 C 258.062,264.877 257.729,268.21 254.5,271.5C 247.435,276.526 245.768,282.859 249.5,290.5C 252.467,295.439 256.134,299.772 260.5,303.5C 258.863,304.218 257.197,304.384 255.5,304C 256.167,303.667 256.833,303.333 257.5,303C 256.012,301.283 254.179,300.116 252,299.5C 251.995,296.771 250.829,294.771 248.5,293.5C 247.914,293.709 247.414,294.043 247,294.5C 245.761,288.539 245.427,282.539 246,276.5C 247.949,274.276 250.115,272.276 252.5,270.5C 251.05,269.15 250.383,267.484 250.5,265.5C 252.167,265.5 253.833,265.5 255.5,265.5C 255.5,264.167 255.5,262.833 255.5,261.5 Z"/></g>
<g><path style="opacity:1" fill="#4454a3" d="M 307.5,271.5 C 310.491,273.123 312.824,275.457 314.5,278.5C 312.606,277.952 310.94,276.952 309.5,275.5C 309.094,276.557 309.094,277.891 309.5,279.5C 308.5,279.5 307.5,279.5 306.5,279.5C 306.343,280.873 306.51,282.207 307,283.5C 308.627,284.532 309.793,285.866 310.5,287.5C 309.761,287.631 309.094,287.464 308.5,287C 303.272,280.945 297.939,275.112 292.5,269.5C 294.262,269.357 295.929,269.691 297.5,270.5C 298.192,269.975 298.692,269.308 299,268.5C 300.509,269.09 302.009,269.756 303.5,270.5C 302.5,271.167 301.5,271.833 300.5,272.5C 301.667,274.833 302.833,277.167 304,279.5C 304.692,278.975 305.192,278.308 305.5,277.5C 303.711,276.377 303.378,275.044 304.5,273.5C 307.815,275.217 308.815,274.55 307.5,271.5 Z"/></g>
<g><path style="opacity:1" fill="#8e9ac4" d="M 271.5,276.5 C 270.833,277.5 270.167,278.5 269.5,279.5C 267.896,280.287 267.229,281.62 267.5,283.5C 266.061,279.878 267.394,277.544 271.5,276.5 Z"/></g>
<g><path style="opacity:1" fill="#4c599a" d="M 6.5,275.5 C 7.15149,276.091 7.81815,276.757 8.5,277.5C 8.89392,283.787 10.3939,289.787 13,295.5C 13.4974,298.146 13.6641,300.813 13.5,303.5C 9.9837,294.589 7.65037,285.255 6.5,275.5 Z"/></g>
<g><path style="opacity:1" fill="#4152aa" d="M 147.5,274.5 C 141.183,280.813 134.517,286.813 127.5,292.5C 127.976,290.007 129.31,288.007 131.5,286.5C 130.311,285.571 128.978,285.238 127.5,285.5C 127.5,283.833 127.5,282.167 127.5,280.5C 130.766,280.567 132.266,278.901 132,275.5C 134.326,272.989 137.159,271.656 140.5,271.5C 140.116,273.665 140.783,275.332 142.5,276.5C 143.842,274.995 145.508,274.328 147.5,274.5 Z"/></g>
<g><path style="opacity:1" fill="#475398" d="M 223.5,273.5 C 223.649,274.552 223.483,275.552 223,276.5C 220.677,279.126 218.343,281.793 216,284.5C 215.517,285.448 215.351,286.448 215.5,287.5C 214.5,287.5 213.5,287.5 212.5,287.5C 215.38,282.278 219.047,277.612 223.5,273.5 Z"/></g>
<g><path style="opacity:1" fill="#4050b6" d="M 255.5,261.5 C 255.5,262.833 255.5,264.167 255.5,265.5C 253.833,265.5 252.167,265.5 250.5,265.5C 250.383,267.484 251.05,269.15 252.5,270.5C 250.115,272.276 247.949,274.276 246,276.5C 245.427,282.539 245.761,288.539 247,294.5C 247.414,294.043 247.914,293.709 248.5,293.5C 250.829,294.771 251.995,296.771 252,299.5C 254.179,300.116 256.012,301.283 257.5,303C 256.833,303.333 256.167,303.667 255.5,304C 257.197,304.384 258.863,304.218 260.5,303.5C 262.359,307.867 265.193,311.533 269,314.5C 269.27,319.936 272.103,322.27 277.5,321.5C 277.859,323.766 277.192,325.599 275.5,327C 275.833,327.333 276.167,327.667 276.5,328C 274.893,327.981 273.226,327.815 271.5,327.5C 272.363,331.369 274.697,334.035 278.5,335.5C 279.5,335.167 280.5,334.833 281.5,334.5C 280.691,332.929 280.357,331.262 280.5,329.5C 281.873,329.343 283.207,329.51 284.5,330C 285.11,331.947 285.943,333.781 287,335.5C 287.308,334.692 287.808,334.025 288.5,333.5C 289.518,334.193 290.518,334.859 291.5,335.5C 291.833,335.5 292.167,335.5 292.5,335.5C 293.008,337.865 293.675,340.199 294.5,342.5C 292.257,343.474 289.924,343.808 287.5,343.5C 288.255,346.512 289.588,349.178 291.5,351.5C 292.833,351.5 294.167,351.5 295.5,351.5C 295.5,349.5 295.5,347.5 295.5,345.5C 297.833,345.5 300.167,345.5 302.5,345.5C 302.179,346.817 301.846,348.151 301.5,349.5C 302.547,351.056 303.214,352.723 303.5,354.5C 305.527,354.338 307.527,354.505 309.5,355C 311.447,358.07 313.947,360.57 317,362.5C 317.27,367.936 320.103,370.27 325.5,369.5C 325.281,370.675 325.614,371.675 326.5,372.5C 327.897,374.606 329.73,376.273 332,377.5C 332.495,379.473 332.662,381.473 332.5,383.5C 335.336,384.776 338.336,385.442 341.5,385.5C 342.519,389.852 345.186,392.519 349.5,393.5C 349.201,395.604 349.534,397.604 350.5,399.5C 351.265,398.388 352.265,397.721 353.5,397.5C 355.795,398.475 357.795,399.808 359.5,401.5C 362.976,402.643 366.642,402.81 370.5,402C 371.756,401.583 372.423,400.75 372.5,399.5C 374.833,397.5 377.167,395.5 379.5,393.5C 377.324,396.519 375.324,399.685 373.5,403C 368.167,403.667 362.833,403.667 357.5,403C 355.75,401.681 353.75,401.181 351.5,401.5C 351.5,402.5 351.5,403.5 351.5,404.5C 353.099,404.232 354.432,404.566 355.5,405.5C 354.167,405.5 352.833,405.5 351.5,405.5C 351.5,406.5 351.5,407.5 351.5,408.5C 356.162,408.962 360.829,409.462 365.5,410C 366.973,410.71 367.64,411.876 367.5,413.5C 362.167,413.5 356.833,413.5 351.5,413.5C 351.5,419.5 351.5,425.5 351.5,431.5C 350.325,431.281 349.325,431.614 348.5,432.5C 350.304,433.768 352.304,434.435 354.5,434.5C 354.5,435.5 354.5,436.5 354.5,437.5C 348.461,441.195 342.128,444.529 335.5,447.5C 332.124,447.474 328.958,448.141 326,449.5C 322.565,448.509 319.065,447.843 315.5,447.5C 310.562,448.138 305.729,449.138 301,450.5C 298.336,450.809 296.17,449.975 294.5,448C 292.167,447.333 289.833,447.333 287.5,448C 290.581,449.087 293.081,450.92 295,453.5C 298.776,454.394 302.61,454.728 306.5,454.5C 306.5,455.833 306.5,457.167 306.5,458.5C 301.213,459.342 295.88,459.676 290.5,459.5C 290.527,461.199 291.194,462.533 292.5,463.5C 290.833,463.5 289.167,463.5 287.5,463.5C 271.539,465.527 255.539,467.193 239.5,468.5C 229.481,468.374 219.481,467.874 209.5,467C 201.219,465.397 192.885,464.231 184.5,463.5C 183.833,463.5 183.167,463.5 182.5,463.5C 182.392,461.217 181.559,459.217 180,457.5C 177.353,456.331 174.853,454.998 172.5,453.5C 168.47,455.59 164.137,456.59 159.5,456.5C 155.858,455.057 152.191,453.224 148.5,451C 145.793,450.605 143.127,450.105 140.5,449.5C 126.839,443.677 114.172,436.343 102.5,427.5C 99.883,426.214 97.5496,424.547 95.5,422.5C 95.6795,420.046 95.0128,417.879 93.5,416C 93.9054,415.055 94.572,414.388 95.5,414C 97.1667,413.667 98.8333,413.333 100.5,413C 98.2729,412.879 96.4396,412.046 95,410.5C 94.6258,411.416 94.1258,412.25 93.5,413C 90.208,413.936 87.208,413.436 84.5,411.5C 84.7093,410.914 85.0426,410.414 85.5,410C 88.6643,409.613 91.4977,408.446 94,406.5C 97.4551,407.55 100.955,407.717 104.5,407C 107.993,405.209 111.659,403.876 115.5,403C 117.031,397.268 120.198,396.101 125,399.5C 128.154,398.566 127.988,397.899 124.5,397.5C 124.343,396.127 124.51,394.793 125,393.5C 128.975,391.683 132.142,389.017 134.5,385.5C 134.03,384.537 133.363,384.537 132.5,385.5C 132.5,384.167 133.167,383.5 134.5,383.5C 137.29,383.222 139.79,383.889 142,385.5C 142.5,385.167 143,384.833 143.5,384.5C 142.675,383.614 141.675,383.281 140.5,383.5C 140.383,381.516 141.05,379.85 142.5,378.5C 143.88,379.976 145.547,380.976 147.5,381.5C 151.781,379.652 155.448,380.319 158.5,383.5C 158.833,382.667 159.167,381.833 159.5,381C 155.679,376.144 155.679,371.144 159.5,366C 159.167,365.5 158.833,365 158.5,364.5C 157.614,365.325 157.281,366.325 157.5,367.5C 156.167,367.5 154.833,367.5 153.5,367.5C 154.138,363.729 155.972,360.729 159,358.5C 159.494,356.866 159.66,355.199 159.5,353.5C 163.806,346.866 168.806,340.866 174.5,335.5C 177.997,334.94 180.497,332.94 182,329.5C 183.128,331.345 183.628,333.345 183.5,335.5C 185.833,335.5 188.167,335.5 190.5,335.5C 191.571,329.941 191.571,324.441 190.5,319C 191.766,318.691 192.933,318.191 194,317.5C 198.308,307.829 200.141,308.496 199.5,319.5C 201.144,319.714 202.644,319.38 204,318.5C 204.333,313.167 204.667,307.833 205,302.5C 206.273,300.286 207.273,297.953 208,295.5C 211.136,293.836 212.303,291.169 211.5,287.5C 211.833,287.5 212.167,287.5 212.5,287.5C 213.5,287.5 214.5,287.5 215.5,287.5C 215.351,286.448 215.517,285.448 216,284.5C 218.343,281.793 220.677,279.126 223,276.5C 223.483,275.552 223.649,274.552 223.5,273.5C 223.328,272.508 223.662,271.842 224.5,271.5C 227.356,270.586 229.856,268.919 232,266.5C 232.258,263.314 233.925,261.314 237,260.5C 237.192,262.577 237.692,264.577 238.5,266.5C 239.753,263.365 239.42,260.365 237.5,257.5C 238.547,255.944 239.214,254.277 239.5,252.5C 239.866,251.305 240.699,250.639 242,250.5C 243.5,251 245,251.5 246.5,252C 250.43,254.427 253.43,257.593 255.5,261.5 Z"/></g>
<g><path style="opacity:1" fill="#475598" d="M 271.5,287.5 C 272.978,287.238 274.311,287.571 275.5,288.5C 276.848,291.013 278.848,292.847 281.5,294C 283.15,296.813 285.15,299.313 287.5,301.5C 287.376,302.107 287.043,302.44 286.5,302.5C 284.946,301.307 283.279,300.14 281.5,299C 278.273,294.949 274.939,291.115 271.5,287.5 Z"/></g>
<g><path style="opacity:1" fill="#4a57a3" d="M 271.5,276.5 C 274.226,276.264 276.559,277.097 278.5,279C 292.055,294.05 305.721,308.883 319.5,323.5C 317.703,324.73 315.703,325.396 313.5,325.5C 313.519,323.94 313.852,322.44 314.5,321C 309.218,317.719 305.385,313.219 303,307.5C 300.794,309.04 298.96,310.873 297.5,313C 299.039,316.007 300.872,316.174 303,313.5C 303.393,315.716 302.893,317.716 301.5,319.5C 296.406,314.941 291.739,309.941 287.5,304.5C 289.54,303.481 291.54,303.481 293.5,304.5C 291.043,306.332 291.043,307.999 293.5,309.5C 295.337,308.162 297.003,306.662 298.5,305C 296.788,303.077 295.454,300.911 294.5,298.5C 291.576,295.75 288.242,293.583 284.5,292C 282.724,285.707 278.891,281.207 273,278.5C 271.862,278.989 270.695,279.322 269.5,279.5C 270.167,278.5 270.833,277.5 271.5,276.5 Z"/></g>
<g><path style="opacity:1" fill="#4153b4" d="M 314.5,278.5 C 315.473,278.987 316.473,279.487 317.5,280C 319.364,282.688 321.364,285.188 323.5,287.5C 325.084,290.959 327.417,293.959 330.5,296.5C 331.452,298.045 331.785,299.712 331.5,301.5C 329.5,302.167 327.5,302.833 325.5,303.5C 319.146,299.478 314.146,294.145 310.5,287.5C 309.793,285.866 308.627,284.532 307,283.5C 306.51,282.207 306.343,280.873 306.5,279.5C 307.5,279.5 308.5,279.5 309.5,279.5C 309.094,277.891 309.094,276.557 309.5,275.5C 310.94,276.952 312.606,277.952 314.5,278.5 Z"/></g>
<g><path style="opacity:1" fill="#43579f" d="M 348.5,291.5 C 351.272,291.22 353.772,291.887 356,293.5C 358.184,296.52 359.684,299.853 360.5,303.5C 355.984,299.93 351.984,295.93 348.5,291.5 Z"/></g>
<g><path style="opacity:1" fill="#a3b1db" d="M 127.5,293.5 C 126.167,295.5 124.5,297.167 122.5,298.5C 123.167,295.833 124.833,294.167 127.5,293.5 Z"/></g>
<g><path style="opacity:1" fill="#3e4fb6" d="M 287.5,304.5 C 287.167,303.833 286.833,303.167 286.5,302.5C 287.043,302.44 287.376,302.107 287.5,301.5C 285.15,299.313 283.15,296.813 281.5,294C 278.848,292.847 276.848,291.013 275.5,288.5C 274.311,287.571 272.978,287.238 271.5,287.5C 269.736,286.674 268.402,285.341 267.5,283.5C 267.229,281.62 267.896,280.287 269.5,279.5C 270.695,279.322 271.862,278.989 273,278.5C 278.891,281.207 282.724,285.707 284.5,292C 288.242,293.583 291.576,295.75 294.5,298.5C 295.454,300.911 296.788,303.077 298.5,305C 297.003,306.662 295.337,308.162 293.5,309.5C 291.043,307.999 291.043,306.332 293.5,304.5C 291.54,303.481 289.54,303.481 287.5,304.5 Z"/></g>
<g><path style="opacity:1" fill="#4152ac" d="M 119.5,299.5 C 118.972,300.721 118.305,301.887 117.5,303C 114.603,305.41 111.603,307.577 108.5,309.5C 107.5,309.5 106.5,309.5 105.5,309.5C 106.341,307.621 106.675,305.621 106.5,303.5C 108.167,303.5 109.833,303.5 111.5,303.5C 111.464,300.179 112.131,297.012 113.5,294C 112.946,292.449 112.28,290.949 111.5,289.5C 111.833,288.833 112.167,288.167 112.5,287.5C 114.588,289.865 117.254,290.865 120.5,290.5C 120.5,289.5 120.5,288.5 120.5,287.5C 121.833,287.5 123.167,287.5 124.5,287.5C 124.719,288.675 124.386,289.675 123.5,290.5C 121.833,292.833 119.833,294.833 117.5,296.5C 117.942,297.739 118.609,298.739 119.5,299.5 Z"/></g>
<g><path style="opacity:1" fill="#4252ad" d="M 458.5,306.5 C 456.576,316.955 452.909,326.621 447.5,335.5C 448.715,331.811 449.715,327.977 450.5,324C 450.32,321.759 449.487,321.259 448,322.5C 447.833,320.167 447.667,317.833 447.5,315.5C 447.953,310.678 448.953,306.012 450.5,301.5C 449.989,298.001 448.989,294.668 447.5,291.5C 447.833,290.167 448.167,288.833 448.5,287.5C 449.851,290.196 451.684,292.53 454,294.5C 454.499,298.486 454.666,302.486 454.5,306.5C 455.833,306.5 457.167,306.5 458.5,306.5 Z"/></g>
<g><path style="opacity:1" fill="#4855a3" d="M 323.5,287.5 C 331.619,295.074 339.285,303.074 346.5,311.5C 344.156,311.325 342.489,310.158 341.5,308C 340.207,307.51 338.873,307.343 337.5,307.5C 336.833,309.833 336.167,312.167 335.5,314.5C 331.456,311.457 328.123,307.791 325.5,303.5C 327.5,302.833 329.5,302.167 331.5,301.5C 331.785,299.712 331.452,298.045 330.5,296.5C 327.417,293.959 325.084,290.959 323.5,287.5 Z"/></g>
<g><path style="opacity:1" fill="#3b50b9" d="M 337.5,307.5 C 336.069,307.881 335.236,308.881 335,310.5C 333.81,307.8 331.977,305.633 329.5,304C 334.135,300.357 336.801,301.524 337.5,307.5 Z"/></g>
<g><path style="opacity:1" fill="#4153b0" d="M 337.5,307.5 C 338.873,307.343 340.207,307.51 341.5,308C 342.489,310.158 344.156,311.325 346.5,311.5C 350.544,315.841 354.544,320.175 358.5,324.5C 358.5,325.833 358.5,327.167 358.5,328.5C 362.92,329.09 363.586,331.09 360.5,334.5C 358.955,335.452 357.288,335.785 355.5,335.5C 348.054,329.058 341.387,322.058 335.5,314.5C 336.167,312.167 336.833,309.833 337.5,307.5 Z"/></g>
<g><path style="opacity:1" fill="#445598" d="M 105.5,309.5 C 106.5,309.5 107.5,309.5 108.5,309.5C 103.548,315.119 98.2148,320.452 92.5,325.5C 92.756,323.088 91.756,321.421 89.5,320.5C 91.3529,319.24 93.1862,319.24 95,320.5C 98.0576,316.279 101.558,312.612 105.5,309.5 Z"/></g>
<g><path style="opacity:1" fill="#4452ab" d="M 260.5,303.5 C 270.466,313.633 280.633,323.633 291,333.5C 291.464,334.094 291.631,334.761 291.5,335.5C 290.518,334.859 289.518,334.193 288.5,333.5C 287.808,334.025 287.308,334.692 287,335.5C 285.943,333.781 285.11,331.947 284.5,330C 283.207,329.51 281.873,329.343 280.5,329.5C 280.357,331.262 280.691,332.929 281.5,334.5C 280.5,334.833 279.5,335.167 278.5,335.5C 274.697,334.035 272.363,331.369 271.5,327.5C 273.226,327.815 274.893,327.981 276.5,328C 276.167,327.667 275.833,327.333 275.5,327C 277.192,325.599 277.859,323.766 277.5,321.5C 272.103,322.27 269.27,319.936 269,314.5C 265.193,311.533 262.359,307.867 260.5,303.5 Z"/></g>
<g><path style="opacity:1" fill="#4253ac" d="M 211.5,287.5 C 212.303,291.169 211.136,293.836 208,295.5C 207.273,297.953 206.273,300.286 205,302.5C 204.667,307.833 204.333,313.167 204,318.5C 202.644,319.38 201.144,319.714 199.5,319.5C 200.141,308.496 198.308,307.829 194,317.5C 192.933,318.191 191.766,318.691 190.5,319C 191.571,324.441 191.571,329.941 190.5,335.5C 188.167,335.5 185.833,335.5 183.5,335.5C 183.628,333.345 183.128,331.345 182,329.5C 180.497,332.94 177.997,334.94 174.5,335.5C 186.071,318.927 198.404,302.927 211.5,287.5 Z"/></g>
<g><path style="opacity:1" fill="#434fb1" d="M 319.5,323.5 C 319.5,324.833 319.5,326.167 319.5,327.5C 323.609,328.609 325.942,331.275 326.5,335.5C 323.892,335.4 321.558,336.067 319.5,337.5C 313.779,331.113 307.779,325.113 301.5,319.5C 302.893,317.716 303.393,315.716 303,313.5C 300.872,316.174 299.039,316.007 297.5,313C 298.96,310.873 300.794,309.04 303,307.5C 305.385,313.219 309.218,317.719 314.5,321C 313.852,322.44 313.519,323.94 313.5,325.5C 315.703,325.396 317.703,324.73 319.5,323.5 Z"/></g>
<g><path style="opacity:1" fill="#4b5ca4" d="M 376.5,319.5 C 377.5,319.5 378.5,319.5 379.5,319.5C 379.351,320.552 379.517,321.552 380,322.5C 382.461,325.488 385.628,326.821 389.5,326.5C 390.639,329.004 391.306,331.67 391.5,334.5C 385.5,330.5 380.5,325.5 376.5,319.5 Z"/></g>
<g><path style="opacity:1" fill="#4151ac" d="M 35.5,354.5 C 30.4051,346.646 26.0718,338.313 22.5,329.5C 23.675,329.719 24.675,329.386 25.5,328.5C 25.9766,327.069 26.6433,325.736 27.5,324.5C 28.086,324.709 28.586,325.043 29,325.5C 29.4955,327.473 29.6621,329.473 29.5,331.5C 28.5,331.5 27.5,331.5 26.5,331.5C 27.6408,335.13 28.8075,338.797 30,342.5C 30.6667,343.167 31.3333,343.833 32,344.5C 33.3561,343.62 34.8561,343.286 36.5,343.5C 36.6126,340.951 35.9459,338.618 34.5,336.5C 37.0865,335.52 39.7531,335.187 42.5,335.5C 42.5,338.833 44.1667,340.5 47.5,340.5C 47.8134,343.247 47.48,345.914 46.5,348.5C 44.057,346.945 41.3903,346.278 38.5,346.5C 38.5,348.167 38.5,349.833 38.5,351.5C 37.5,351.5 36.5,351.5 35.5,351.5C 35.5,352.5 35.5,353.5 35.5,354.5 Z"/></g>
<g><path style="opacity:1" fill="#4353ac" d="M 319.5,323.5 C 321.837,325.666 324.337,327.666 327,329.5C 341.067,345.062 355.234,360.395 369.5,375.5C 371.227,382.936 368.56,385.103 361.5,382C 359.627,380.296 357.96,378.463 356.5,376.5C 343.829,363.829 331.496,350.829 319.5,337.5C 321.558,336.067 323.892,335.4 326.5,335.5C 325.942,331.275 323.609,328.609 319.5,327.5C 319.5,326.167 319.5,324.833 319.5,323.5 Z"/></g>
<g><path style="opacity:1" fill="#464dbb" d="M 367.5,333.5 C 367.5,334.167 367.5,334.833 367.5,335.5C 367.5,339.5 365.5,341.5 361.5,341.5C 361.949,337.712 363.949,335.045 367.5,333.5 Z"/></g>
<g><path style="opacity:1" fill="#4152ab" d="M 391.5,335.5 C 394.157,335.162 396.49,335.829 398.5,337.5C 402.582,335.654 406.915,334.987 411.5,335.5C 411.5,336.833 411.5,338.167 411.5,339.5C 409.473,339.338 407.473,339.505 405.5,340C 406.116,343.287 407.616,346.121 410,348.5C 410.5,352 411,355.5 411.5,359C 410.256,365.039 410.923,370.873 413.5,376.5C 413.154,377.696 412.654,377.696 412,376.5C 411.503,378.81 411.337,381.143 411.5,383.5C 410.167,383.5 408.833,383.5 407.5,383.5C 407.942,379.846 408.276,376.179 408.5,372.5C 402.902,373.49 401.068,376.824 403,382.5C 404.011,383.337 405.178,383.67 406.5,383.5C 406.5,384.833 406.5,386.167 406.5,387.5C 402.838,388.363 400.672,387.03 400,383.5C 398.392,385.1 396.559,386.433 394.5,387.5C 393.833,387.167 393.167,386.833 392.5,386.5C 389.336,388.479 386.003,390.145 382.5,391.5C 383.028,390.279 383.695,389.113 384.5,388C 393.71,380.825 401.876,372.658 409,363.5C 409.667,360.833 409.667,358.167 409,355.5C 404.018,348.022 398.184,341.356 391.5,335.5 Z"/></g>
<g><path style="opacity:1" fill="#4655a8" d="M 358.5,324.5 C 361.833,327.167 364.833,330.167 367.5,333.5C 363.949,335.045 361.949,337.712 361.5,341.5C 365.5,341.5 367.5,339.5 367.5,335.5C 372.387,337.383 376.054,340.716 378.5,345.5C 374.901,346.103 372.568,348.103 371.5,351.5C 375.781,351.563 378.448,349.563 379.5,345.5C 381.957,346.735 383.29,348.735 383.5,351.5C 383.5,352.5 383.5,353.5 383.5,354.5C 387.42,355.409 388.753,357.742 387.5,361.5C 385.709,362.17 384.042,362.837 382.5,363.5C 372.8,354.801 363.8,345.467 355.5,335.5C 357.288,335.785 358.955,335.452 360.5,334.5C 363.586,331.09 362.92,329.09 358.5,328.5C 358.5,327.167 358.5,325.833 358.5,324.5 Z"/></g>
<g><path style="opacity:1" fill="#404ebe" d="M 369.5,339.5 C 371.635,339.147 372.968,339.98 373.5,342C 372.231,344.779 370.231,346.612 367.5,347.5C 367.107,344.487 367.774,341.82 369.5,339.5 Z"/></g>
<g><path style="opacity:1" fill="#4055aa" d="M 292.5,335.5 C 296.167,338.5 299.5,341.833 302.5,345.5C 300.167,345.5 297.833,345.5 295.5,345.5C 295.5,347.5 295.5,349.5 295.5,351.5C 294.167,351.5 292.833,351.5 291.5,351.5C 289.588,349.178 288.255,346.512 287.5,343.5C 289.924,343.808 292.257,343.474 294.5,342.5C 293.675,340.199 293.008,337.865 292.5,335.5 Z"/></g>
<g><path style="opacity:1" fill="#4959a4" d="M 69.5,348.5 C 68.8783,349.627 68.045,350.627 67,351.5C 66.1225,355.052 64.9558,358.386 63.5,361.5C 63.4013,358.763 63.7347,356.096 64.5,353.5C 65.0967,353.265 65.4301,352.765 65.5,352C 63.8891,349.79 63.2224,347.29 63.5,344.5C 64.5,344.5 65.5,344.5 66.5,344.5C 66.0882,346.973 67.0882,348.306 69.5,348.5 Z"/></g>
<g><path style="opacity:1" fill="#404fbd" d="M 378.5,345.5 C 378.833,345.5 379.167,345.5 379.5,345.5C 378.448,349.563 375.781,351.563 371.5,351.5C 372.568,348.103 374.901,346.103 378.5,345.5 Z"/></g>
<g><path style="opacity:1" fill="#4151b1" d="M 64.5,353.5 C 63.7347,356.096 63.4013,358.763 63.5,361.5C 63.5,366.167 63.5,370.833 63.5,375.5C 63.7244,379.179 64.0578,382.846 64.5,386.5C 62.7988,386.034 61.2988,386.034 60,386.5C 59.4115,384.137 57.9115,383.137 55.5,383.5C 47.903,375.029 41.2364,365.695 35.5,355.5C 38.5,355.833 39.8333,354.5 39.5,351.5C 41.1667,351.5 42.8333,351.5 44.5,351.5C 44.5,352.833 44.5,354.167 44.5,355.5C 43.1667,355.5 41.8333,355.5 40.5,355.5C 39.7893,358.864 40.956,361.197 44,362.5C 44.4955,360.527 44.6621,358.527 44.5,356.5C 45.5,356.5 46.5,356.5 47.5,356.5C 47.5,354.833 47.5,353.167 47.5,351.5C 53.4632,350.955 59.1299,351.621 64.5,353.5 Z"/></g>
<g><path style="opacity:1" fill="#4955a2" d="M 302.5,345.5 C 319.445,362.78 336.445,380.113 353.5,397.5C 352.265,397.721 351.265,398.388 350.5,399.5C 349.534,397.604 349.201,395.604 349.5,393.5C 345.186,392.519 342.519,389.852 341.5,385.5C 338.336,385.442 335.336,384.776 332.5,383.5C 332.662,381.473 332.495,379.473 332,377.5C 329.73,376.273 327.897,374.606 326.5,372.5C 325.614,371.675 325.281,370.675 325.5,369.5C 320.103,370.27 317.27,367.936 317,362.5C 313.947,360.57 311.447,358.07 309.5,355C 307.527,354.505 305.527,354.338 303.5,354.5C 303.214,352.723 302.547,351.056 301.5,349.5C 301.846,348.151 302.179,346.817 302.5,345.5 Z"/></g>
<g><path style="opacity:1" fill="#4251b0" d="M 442.5,345.5 C 435.988,359.378 427.655,372.045 417.5,383.5C 417.092,380.47 416.426,377.47 415.5,374.5C 416.021,372.076 416.688,369.743 417.5,367.5C 415.876,367.64 414.71,366.973 414,365.5C 412.742,360.943 412.575,356.276 413.5,351.5C 419.5,351.5 425.5,351.5 431.5,351.5C 432.873,346.277 433.539,340.944 433.5,335.5C 436.187,335.336 438.854,335.503 441.5,336C 439.335,337.161 438.335,338.994 438.5,341.5C 438.179,344.512 439.512,345.845 442.5,345.5 Z"/></g>
<g><path style="opacity:1" fill="#4a5593" d="M 383.5,351.5 C 390.107,354.002 391.44,358.002 387.5,363.5C 385.684,364.735 384.017,364.735 382.5,363.5C 384.042,362.837 385.709,362.17 387.5,361.5C 388.753,357.742 387.42,355.409 383.5,354.5C 383.5,353.5 383.5,352.5 383.5,351.5 Z"/></g>
<g><path style="opacity:1" fill="#485494" d="M 114.5,351.5 C 116.894,353.332 117.894,355.832 117.5,359C 117.698,362.613 116.365,365.447 113.5,367.5C 115.547,362.27 115.88,356.937 114.5,351.5 Z"/></g>
<g><path style="opacity:1" fill="#4353ab" d="M 114.5,351.5 C 115.88,356.937 115.547,362.27 113.5,367.5C 108.805,370.169 104.138,370.002 99.5,367C 95.0411,360.422 95.7078,354.422 101.5,349C 106.424,347.743 110.757,348.577 114.5,351.5 Z"/></g>
<g><path style="opacity:1" fill="#414cc1" d="M 106.5,350.5 C 108.199,350.34 109.866,350.506 111.5,351C 109.244,353.478 108.911,356.311 110.5,359.5C 108.951,361.902 108.284,364.568 108.5,367.5C 107.022,367.762 105.689,367.429 104.5,366.5C 105.167,361.137 105.834,355.804 106.5,350.5 Z"/></g>
<g><path style="opacity:1" fill="#495b91" d="M 154.5,359.5 C 153.5,362.167 152.5,364.833 151.5,367.5C 150.5,367.5 149.5,367.5 148.5,367.5C 150.122,364.545 152.122,361.878 154.5,359.5 Z"/></g>
<g><path style="opacity:1" fill="#4254ab" d="M 159.5,353.5 C 159.66,355.199 159.494,356.866 159,358.5C 155.972,360.729 154.138,363.729 153.5,367.5C 154.833,367.5 156.167,367.5 157.5,367.5C 157.281,366.325 157.614,365.325 158.5,364.5C 158.833,365 159.167,365.5 159.5,366C 155.679,371.144 155.679,376.144 159.5,381C 159.167,381.833 158.833,382.667 158.5,383.5C 155.448,380.319 151.781,379.652 147.5,381.5C 145.547,380.976 143.88,379.976 142.5,378.5C 141.05,379.85 140.383,381.516 140.5,383.5C 141.675,383.281 142.675,383.614 143.5,384.5C 143,384.833 142.5,385.167 142,385.5C 139.79,383.889 137.29,383.222 134.5,383.5C 138.863,378.142 143.197,372.809 147.5,367.5C 147.5,369.833 147.5,372.167 147.5,374.5C 149.144,374.714 150.644,374.38 152,373.5C 152.789,371.288 152.622,369.288 151.5,367.5C 152.5,364.833 153.5,362.167 154.5,359.5C 155.692,357.122 157.359,355.122 159.5,353.5 Z"/></g>
<g><path style="opacity:1" fill="#4050c4" d="M 147.5,367.5 C 147.833,367.5 148.167,367.5 148.5,367.5C 149.5,367.5 150.5,367.5 151.5,367.5C 152.622,369.288 152.789,371.288 152,373.5C 150.644,374.38 149.144,374.714 147.5,374.5C 147.5,372.167 147.5,369.833 147.5,367.5 Z"/></g>
<g><path style="opacity:1" fill="#3e4dbd" d="M 356.5,376.5 C 356.72,372.074 359.054,370.074 363.5,370.5C 363.027,374.638 360.693,376.638 356.5,376.5 Z"/></g>
<g><path style="opacity:1" fill="#4a559c" d="M 63.5,375.5 C 65.984,383.946 70.6506,390.946 77.5,396.5C 76.448,396.649 75.448,396.483 74.5,396C 71.0798,392.989 67.5798,390.156 64,387.5C 63.5065,389.134 63.3398,390.801 63.5,392.5C 60.1195,390.12 57.4528,387.12 55.5,383.5C 57.9115,383.137 59.4115,384.137 60,386.5C 61.2988,386.034 62.7988,386.034 64.5,386.5C 64.0578,382.846 63.7244,379.179 63.5,375.5 Z"/></g>
<g><path style="opacity:1" fill="#4450ac" d="M 77.5,396.5 C 79.6626,398.083 81.9959,399.416 84.5,400.5C 85.5,401.167 86.5,401.833 87.5,402.5C 84.1401,402.616 80.8067,402.949 77.5,403.5C 77.5,404.833 77.5,406.167 77.5,407.5C 72.7552,402.486 68.0886,397.486 63.5,392.5C 63.3398,390.801 63.5065,389.134 64,387.5C 67.5798,390.156 71.0798,392.989 74.5,396C 75.448,396.483 76.448,396.649 77.5,396.5 Z"/></g>
<g><path style="opacity:1" fill="#4455a3" d="M 417.5,383.5 C 407.833,396.5 396.5,407.833 383.5,417.5C 383.75,415.326 384.75,413.659 386.5,412.5C 389.746,410.101 392.913,407.434 396,404.5C 396.595,403.101 396.428,401.768 395.5,400.5C 396.689,399.571 398.022,399.238 399.5,399.5C 399.5,397.833 399.5,396.167 399.5,394.5C 401.199,394.66 402.866,394.494 404.5,394C 408.125,390.888 411.125,387.388 413.5,383.5C 414.833,383.5 416.167,383.5 417.5,383.5 Z"/></g>
<g><path style="opacity:1" fill="#7f86b2" d="M 372.5,399.5 C 372.423,400.75 371.756,401.583 370.5,402C 366.642,402.81 362.976,402.643 359.5,401.5C 364.071,401.946 368.404,401.28 372.5,399.5 Z"/></g>
<g><path style="opacity:1" fill="#c8d1f1" d="M 84.5,400.5 C 91.3781,402.159 98.3781,402.825 105.5,402.5C 100.695,403.487 95.6946,403.821 90.5,403.5C 89.791,402.596 88.791,402.263 87.5,402.5C 86.5,401.833 85.5,401.167 84.5,400.5 Z"/></g>
<g><path style="opacity:1" fill="#404cc2" d="M 87.5,402.5 C 88.791,402.263 89.791,402.596 90.5,403.5C 87.026,405.77 83.026,407.103 78.5,407.5C 78.1667,407.5 77.8333,407.5 77.5,407.5C 77.5,406.167 77.5,404.833 77.5,403.5C 80.8067,402.949 84.1401,402.616 87.5,402.5 Z"/></g>
<g><path style="opacity:1" fill="#4555a6" d="M 95.5,422.5 C 90.9933,418.832 86.3266,415.332 81.5,412C 80.1175,410.729 79.1175,409.229 78.5,407.5C 83.026,407.103 87.026,405.77 90.5,403.5C 95.6946,403.821 100.695,403.487 105.5,402.5C 107.482,402.005 109.482,401.505 111.5,401C 119.226,396.768 126.226,391.601 132.5,385.5C 133.363,384.537 134.03,384.537 134.5,385.5C 132.142,389.017 128.975,391.683 125,393.5C 124.51,394.793 124.343,396.127 124.5,397.5C 127.988,397.899 128.154,398.566 125,399.5C 120.198,396.101 117.031,397.268 115.5,403C 111.659,403.876 107.993,405.209 104.5,407C 100.955,407.717 97.4551,407.55 94,406.5C 91.4977,408.446 88.6643,409.613 85.5,410C 85.0426,410.414 84.7093,410.914 84.5,411.5C 87.208,413.436 90.208,413.936 93.5,413C 94.1258,412.25 94.6258,411.416 95,410.5C 96.4396,412.046 98.2729,412.879 100.5,413C 98.8333,413.333 97.1667,413.667 95.5,414C 94.572,414.388 93.9054,415.055 93.5,416C 95.0128,417.879 95.6795,420.046 95.5,422.5 Z"/></g>
<g><path style="opacity:1" fill="#4051af" d="M 386.5,412.5 C 384.75,413.659 383.75,415.326 383.5,417.5C 374.678,425.409 365.011,432.076 354.5,437.5C 354.5,436.5 354.5,435.5 354.5,434.5C 352.304,434.435 350.304,433.768 348.5,432.5C 349.325,431.614 350.325,431.281 351.5,431.5C 351.5,425.5 351.5,419.5 351.5,413.5C 356.833,413.5 362.167,413.5 367.5,413.5C 367.64,411.876 366.973,410.71 365.5,410C 360.829,409.462 356.162,408.962 351.5,408.5C 351.5,407.5 351.5,406.5 351.5,405.5C 352.833,405.5 354.167,405.5 355.5,405.5C 360.222,405.731 364.889,406.398 369.5,407.5C 373.826,406.921 377.326,404.921 380,401.5C 380.492,398.361 381.825,395.694 384,393.5C 384.414,393.957 384.914,394.291 385.5,394.5C 386.399,398.277 387.399,401.944 388.5,405.5C 383.885,405.234 380.552,407.067 378.5,411C 375.845,411.727 373.512,412.894 371.5,414.5C 374.938,416.051 377.938,415.551 380.5,413C 382.473,412.505 384.473,412.338 386.5,412.5 Z"/></g>
<g><path style="opacity:1" fill="#404cbe" d="M 102.5,427.5 C 101.933,425.97 101.267,424.47 100.5,423C 103.099,422.231 105.599,422.398 108,423.5C 108.49,424.793 108.657,426.127 108.5,427.5C 106.5,427.5 104.5,427.5 102.5,427.5 Z"/></g>
<g><path style="opacity:1" fill="#4251ad" d="M 335.5,447.5 C 321.76,454.194 307.427,459.528 292.5,463.5C 291.194,462.533 290.527,461.199 290.5,459.5C 295.88,459.676 301.213,459.342 306.5,458.5C 306.5,457.167 306.5,455.833 306.5,454.5C 302.61,454.728 298.776,454.394 295,453.5C 293.081,450.92 290.581,449.087 287.5,448C 289.833,447.333 292.167,447.333 294.5,448C 296.17,449.975 298.336,450.809 301,450.5C 305.729,449.138 310.562,448.138 315.5,447.5C 319.065,447.843 322.565,448.509 326,449.5C 328.958,448.141 332.124,447.474 335.5,447.5 Z"/></g>
<g><path style="opacity:1" fill="#6c73ac" d="M 140.5,449.5 C 143.127,450.105 145.793,450.605 148.5,451C 152.191,453.224 155.858,455.057 159.5,456.5C 152.535,455.502 146.202,453.168 140.5,449.5 Z"/></g>
<g><path style="opacity:1" fill="#4453ad" d="M 182.5,463.5 C 174.328,462.541 166.661,460.207 159.5,456.5C 164.137,456.59 168.47,455.59 172.5,453.5C 174.853,454.998 177.353,456.331 180,457.5C 181.559,459.217 182.392,461.217 182.5,463.5 Z"/></g>
<g><path style="opacity:1" fill="#4c559c" d="M 184.5,463.5 C 192.885,464.231 201.219,465.397 209.5,467C 219.481,467.874 229.481,468.374 239.5,468.5C 255.539,467.193 271.539,465.527 287.5,463.5C 284.314,465.162 280.814,466.162 277,466.5C 267.908,468.204 258.742,469.204 249.5,469.5C 235.814,469.695 222.147,469.362 208.5,468.5C 200.316,467.064 192.316,465.398 184.5,463.5 Z"/></g>
<g><path style="opacity:1" fill="#b5bce0" d="M 208.5,468.5 C 222.147,469.362 235.814,469.695 249.5,469.5C 237.674,470.66 225.674,470.826 213.5,470C 211.618,469.802 209.952,469.302 208.5,468.5 Z"/></g>
</svg>
