<svg width="20" height="21" viewBox="0 0 20 21" fill="none" xmlns="http://www.w3.org/2000/svg">
<path d="M11.7202 7.67816C11.7888 7.60448 11.8716 7.54537 11.9636 7.50438C12.0556 7.46339 12.1549 7.44135 12.2556 7.43957C12.3563 7.43779 12.4564 7.45632 12.5498 7.49404C12.6431 7.53176 12.728 7.58791 12.7992 7.65912C12.8704 7.73034 12.9266 7.81518 12.9643 7.90856C13.002 8.00195 13.0205 8.10198 13.0187 8.20268C13.017 8.30339 12.9949 8.4027 12.9539 8.4947C12.9129 8.5867 12.8538 8.6695 12.7802 8.73816L8.28015 13.2382C8.21149 13.3118 8.12869 13.371 8.03669 13.4119C7.94469 13.4529 7.84538 13.475 7.74468 13.4768C7.64397 13.4785 7.54394 13.46 7.45056 13.4223C7.35717 13.3846 7.27233 13.3284 7.20112 13.2572C7.1299 13.186 7.07375 13.1011 7.03603 13.0078C6.99831 12.9144 6.97979 12.8143 6.98156 12.7136C6.98334 12.6129 7.00538 12.5136 7.04637 12.4216C7.08736 12.3296 7.14647 12.2468 7.22015 12.1782L11.7202 7.67816Z" fill="#001569"/>
<path d="M15.75 0.458008C16.8772 0.458008 17.9582 0.905774 18.7552 1.7028C19.5522 2.49983 20 3.58084 20 4.70801V5.70801C20 13.854 13.396 20.458 5.25 20.458H4.25C3.12283 20.458 2.04183 20.0102 1.2448 19.2132C0.447767 18.4162 0 17.3352 0 16.208V15.208C0 7.06201 6.604 0.458008 14.75 0.458008H15.75ZM18.5 4.70801C18.5 3.97866 18.2103 3.27919 17.6945 2.76346C17.1788 2.24774 16.4793 1.95801 15.75 1.95801H14.75C14.347 1.95801 13.948 1.97601 13.554 2.01101L18.447 6.90401C18.482 6.51001 18.5 6.11101 18.5 5.70801V4.70801ZM18.153 8.73201L11.726 2.30501C9.30685 2.87397 7.09608 4.11082 5.34546 5.87471C3.59483 7.6386 2.37469 9.85863 1.824 12.282L8.176 18.634C10.5994 18.0834 12.8195 16.8633 14.5834 15.1127C16.3473 13.362 17.5841 11.1512 18.153 8.73201ZM1.543 14.123C1.515 14.481 1.5 14.843 1.5 15.208V16.208C1.5 16.9374 1.78973 17.6368 2.30546 18.1526C2.82118 18.6683 3.52065 18.958 4.25 18.958H5.25C5.615 18.958 5.977 18.943 6.335 18.914L1.544 14.123H1.543Z" fill="#001569"/>
</svg>
