<svg width="24" height="24" viewBox="0 0 24 24" fill="none" xmlns="http://www.w3.org/2000/svg">
<path d="M8.65527 15.7252L15.3229 9.05762" stroke="#001569" stroke-width="3" stroke-linecap="round" stroke-linejoin="round"/>
<path d="M9.21091 10.1689C9.51777 10.1689 9.76654 9.92012 9.76654 9.61325C9.76654 9.30638 9.51777 9.05762 9.21091 9.05762C8.90404 9.05762 8.65527 9.30638 8.65527 9.61325C8.65527 9.92012 8.90404 10.1689 9.21091 10.1689Z" stroke="#001569" stroke-width="3" stroke-linecap="round" stroke-linejoin="round"/>
<path d="M14.7666 15.7245C15.0734 15.7245 15.3222 15.4758 15.3222 15.1689C15.3222 14.862 15.0734 14.6133 14.7666 14.6133C14.4597 14.6133 14.2109 14.862 14.2109 15.1689C14.2109 15.4758 14.4597 15.7245 14.7666 15.7245Z" stroke="#001569" stroke-width="3" stroke-linecap="round" stroke-linejoin="round"/>
<path d="M4.21002 7.05715C4.21002 6.40875 4.4676 5.78691 4.92608 5.32843C5.38457 4.86994 6.00641 4.61237 6.65481 4.61237H7.76607C8.41161 4.612 9.0308 4.35633 9.48854 3.90116L10.2664 3.12327C10.4936 2.89479 10.7637 2.71348 11.0612 2.58976C11.3588 2.46604 11.6778 2.40234 12 2.40234C12.3222 2.40234 12.6412 2.46604 12.9387 2.58976C13.2363 2.71348 13.5064 2.89479 13.7336 3.12327L14.5115 3.90116C14.9692 4.35633 15.5884 4.612 16.2339 4.61237H17.3452C17.9936 4.61237 18.6154 4.86994 19.0739 5.32843C19.5324 5.78691 19.79 6.40875 19.79 7.05715V8.16842C19.7903 8.81395 20.046 9.43314 20.5012 9.89088L21.2791 10.6688C21.5075 10.896 21.6889 11.1661 21.8126 11.4636C21.9363 11.7611 22 12.0801 22 12.4023C22 12.7246 21.9363 13.0436 21.8126 13.3411C21.6889 13.6386 21.5075 13.9087 21.2791 14.1359L20.5012 14.9138C20.046 15.3715 19.7903 15.9907 19.79 16.6363V17.7475C19.79 18.3959 19.5324 19.0178 19.0739 19.4763C18.6154 19.9347 17.9936 20.1923 17.3452 20.1923H16.2339C15.5884 20.1927 14.9692 20.4484 14.5115 20.9035L13.7336 21.6814C13.5064 21.9099 13.2363 22.0912 12.9387 22.2149C12.6412 22.3386 12.3222 22.4023 12 22.4023C11.6778 22.4023 11.3588 22.3386 11.0612 22.2149C10.7637 22.0912 10.4936 21.9099 10.2664 21.6814L9.48854 20.9035C9.0308 20.4484 8.41161 20.1927 7.76607 20.1923H6.65481C6.00641 20.1923 5.38457 19.9347 4.92608 19.4763C4.4676 19.0178 4.21002 18.3959 4.21002 17.7475V16.6363C4.20965 15.9907 3.95399 15.3715 3.49881 14.9138L2.72093 14.1359C2.49245 13.9087 2.31114 13.6386 2.18741 13.3411C2.06369 13.0436 2 12.7246 2 12.4023C2 12.0801 2.06369 11.7611 2.18741 11.4636C2.31114 11.1661 2.49245 10.896 2.72093 10.6688L3.49881 9.89088C3.95399 9.43314 4.20965 8.81395 4.21002 8.16842V7.05715" stroke="#001569" stroke-width="3" stroke-linecap="round" stroke-linejoin="round"/>
</svg>
